<?xml version="1.0" standalone="no"?>
<!DOCTYPE svg PUBLIC "-//W3C//DTD SVG 20010904//EN"
 "http://www.w3.org/TR/2001/REC-SVG-20010904/DTD/svg10.dtd">
<svg version="1.0" xmlns="http://www.w3.org/2000/svg"
 width="300.000000pt" height="146.000000pt" viewBox="0 0 300.000000 146.000000"
 preserveAspectRatio="xMidYMid meet">
<metadata>
Created by potrace 1.10, written by Peter Selinger 2001-2011
</metadata>
<g transform="translate(0.000000,146.000000) scale(0.100000,-0.100000)"
fill="#000000" stroke="none">
<path d="M179 1453 c-4 -23 -5 -1430 -1 -1440 18 -52 22 63 22 717 0 480 -3
730 -10 730 -5 0 -11 -3 -11 -7z"/>
<path d="M1656 1409 c8 -31 10 -58 5 -68 -5 -9 -12 -47 -15 -86 -6 -66 -21
-152 -33 -185 -3 -8 -7 -37 -9 -64 -3 -27 -9 -55 -14 -61 -7 -8 -5 -12 5 -12
8 0 12 4 9 9 -3 4 -1 8 3 8 5 0 9 8 9 18 1 9 8 51 17 92 18 82 22 108 32 190
11 86 19 97 72 114 26 8 42 15 36 15 -7 1 -13 11 -14 24 l0 22 -11 -22 c-6
-12 -22 -24 -35 -28 -30 -7 -26 -11 -42 43 -17 60 -31 52 -15 -9z"/>
<path d="M2802 773 c1 -413 4 -636 9 -558 11 208 11 1245 -1 1245 -7 0 -9
-235 -8 -687z"/>
<path d="M530 1439 c0 -5 5 -7 10 -4 6 3 10 8 10 11 0 2 -4 4 -10 4 -5 0 -10
-5 -10 -11z"/>
<path d="M1317 1411 c-4 -17 -3 -21 5 -13 5 5 8 16 6 23 -3 8 -7 3 -11 -10z"/>
<path d="M1847 1400 c-4 -14 -14 -20 -33 -20 -57 0 -13 -11 102 -26 66 -8 130
-17 144 -19 14 -2 117 -6 230 -9 225 -6 319 -13 394 -27 64 -12 103 -12 90 1
-5 5 -36 12 -69 15 -33 3 -67 8 -75 10 -35 10 -147 16 -340 16 -113 0 -223 5
-245 11 -42 11 -110 21 -135 20 -40 -2 -58 8 -53 28 3 11 3 20 0 20 -2 0 -7
-9 -10 -20z"/>
<path d="M1332 1240 c0 -14 2 -19 5 -12 2 6 2 18 0 25 -3 6 -5 1 -5 -13z"/>
<path d="M562 1090 c0 -19 2 -27 5 -17 2 9 2 25 0 35 -3 9 -5 1 -5 -18z"/>
<path d="M2711 1054 c0 -11 3 -14 6 -6 3 7 2 16 -1 19 -3 4 -6 -2 -5 -13z"/>
<path d="M1363 988 c-13 -6 -23 -17 -23 -25 0 -20 13 -15 33 12 10 14 17 25
15 24 -2 0 -13 -5 -25 -11z"/>
<path d="M2702 945 c0 -16 2 -22 5 -12 2 9 2 23 0 30 -3 6 -5 -1 -5 -18z"/>
<path d="M1821 941 c-7 -5 10 -10 41 -14 29 -3 66 -12 82 -21 16 -8 34 -12 39
-9 13 8 -12 20 -69 33 -79 18 -80 19 -93 11z"/>
<path d="M2020 940 c-12 -7 -10 -9 7 -7 12 0 19 5 17 9 -6 10 -6 10 -24 -2z"/>
<path d="M1340 921 c0 -5 7 -15 17 -22 15 -13 15 -12 4 9 -12 23 -21 28 -21
13z"/>
<path d="M2086 888 c3 -5 21 -8 41 -8 32 0 307 -44 446 -71 53 -11 57 -14 57
-40 0 -15 5 -31 11 -34 6 -4 8 -14 4 -24 -5 -12 -3 -13 6 -4 6 6 17 9 24 7 7
-3 28 13 45 35 18 22 38 42 44 44 6 2 3 3 -6 2 -10 -2 -18 3 -18 11 0 8 -4 14
-10 14 -5 0 -10 -13 -10 -28 0 -16 -9 -37 -21 -48 -38 -34 -69 13 -44 69 4 11
3 17 -5 17 -6 0 -8 -5 -4 -12 8 -12 -23 -9 -121 12 -208 45 -450 77 -439 58z"/>
<path d="M2066 863 c-6 -14 -5 -15 5 -6 7 7 10 15 7 18 -3 3 -9 -2 -12 -12z"/>
<path d="M1546 863 c-4 -4 -22 -8 -39 -9 -57 -3 -112 -17 -253 -62 -33 -10
-68 -18 -77 -16 -9 1 -22 -5 -28 -13 -11 -12 -9 -13 12 -8 182 43 329 75 350
75 14 0 47 -7 73 -16 39 -13 53 -14 74 -4 25 11 29 9 64 -32 21 -23 38 -45 38
-48 0 -3 -12 -5 -27 -4 -87 4 -88 4 -73 15 12 9 11 9 -5 3 -11 -4 -54 -10 -95
-14 -41 -3 -89 -13 -107 -23 -44 -23 -56 -22 -48 6 7 21 6 21 -7 3 -12 -16
-16 -16 -29 -4 -8 8 -23 15 -34 16 -108 12 -110 13 -65 21 19 4 41 3 48 -2 7
-6 17 -5 27 3 16 13 39 4 29 -12 -4 -6 1 -6 14 1 24 13 38 31 23 31 -5 0 -13
-5 -16 -10 -7 -12 -25 -4 -25 10 0 6 18 8 39 5 29 -4 40 -1 45 10 3 9 0 15 -9
15 -14 0 -177 -38 -205 -48 -8 -2 -35 -7 -60 -9 -25 -3 -47 -6 -49 -8 -2 -2 9
-36 24 -75 36 -93 53 -104 151 -98 76 5 122 25 132 59 3 8 -7 3 -22 -10 -14
-14 -29 -22 -32 -18 -4 3 -16 0 -28 -8 -20 -15 -92 -20 -132 -9 -21 6 -50 51
-39 62 3 3 5 1 5 -5 0 -6 8 -9 18 -6 10 2 24 -3 31 -11 11 -14 11 -16 -5 -16
-16 0 -17 -2 -4 -10 8 -5 23 -10 33 -10 16 0 16 2 3 29 -16 31 -34 41 -71 41
-17 0 -24 7 -28 27 -3 16 -3 31 0 35 2 5 35 8 72 8 l68 0 -5 -30 c-3 -19 0
-30 8 -30 8 0 11 9 8 25 -4 21 -1 25 17 25 32 0 50 -26 49 -71 -1 -33 1 -37
13 -28 8 7 12 18 9 24 -2 7 0 18 5 26 10 15 28 -2 71 -64 21 -29 76 -60 91
-50 7 4 8 0 3 -13 -13 -31 -18 -60 -9 -49 4 6 15 12 23 14 8 2 24 6 34 9 13 3
17 1 12 -6 -4 -6 -25 -17 -46 -23 -23 -7 -42 -20 -46 -31 -3 -11 -8 -17 -12
-14 -3 3 -12 0 -21 -8 -9 -8 -20 -15 -26 -17 -5 -1 -19 -5 -30 -10 -19 -7 -19
-8 3 -8 12 -1 45 10 72 24 27 14 56 25 65 25 8 0 15 7 15 15 0 8 7 15 17 15 9
0 13 3 10 7 -4 3 3 11 16 17 14 8 22 21 22 36 0 17 5 25 17 24 10 -1 17 1 16
5 0 3 1 8 2 11 1 3 7 34 14 70 9 54 14 65 31 65 21 0 23 9 10 62 -4 18 -12 30
-19 27 -6 -2 -20 2 -31 11 -19 14 -17 15 25 9 27 -4 52 -14 63 -26 20 -23 23
-11 3 14 -20 27 -99 37 -178 22 -25 -4 -38 -2 -38 5 0 6 -9 11 -20 11 -13 0
-18 5 -14 15 7 16 2 20 -10 8z m151 -168 c18 -25 12 -113 -8 -126 -20 -13
-124 -11 -153 3 -27 12 -64 58 -46 58 5 0 10 5 10 11 0 5 -4 8 -9 5 -4 -3 -13
5 -19 19 -19 41 16 54 136 51 61 -1 77 -5 89 -21z m-44 -152 c-20 -7 -15 -23
5 -16 9 3 13 2 9 -3 -10 -10 -87 -12 -87 -2 0 12 34 27 60 27 14 0 19 -3 13
-6z"/>
<path d="M1545 680 c-4 -6 -16 -8 -28 -5 -12 2 -17 2 -11 0 6 -3 9 -17 6 -30
-5 -30 13 -33 28 -5 6 11 20 20 31 20 21 0 20 -1 -2 -20 l-24 -20 33 11 c36
12 38 32 4 37 -12 2 -20 8 -17 13 4 5 2 9 -4 9 -5 0 -13 -5 -16 -10z"/>
<path d="M1653 646 c-25 -11 -31 -36 -10 -36 6 0 17 11 24 25 6 14 10 24 10
24 -1 -1 -12 -6 -24 -13z"/>
<path d="M1590 609 c0 -7 -11 -8 -30 -4 -19 4 -30 3 -30 -4 0 -6 7 -11 15 -11
8 0 15 -4 15 -10 0 -5 21 -10 48 -9 26 0 41 3 35 6 -7 2 -13 11 -13 18 0 7 -7
16 -16 19 -21 8 -24 8 -24 -5z"/>
<path d="M1680 606 c0 -8 -6 -17 -12 -19 -8 -3 -6 -6 5 -6 11 -1 17 6 17 19 0
11 -2 20 -5 20 -3 0 -5 -6 -5 -14z"/>
<path d="M2696 862 c-2 -4 -1 -14 5 -22 7 -12 9 -10 9 8 0 23 -5 28 -14 14z"/>
<path d="M2025 839 c-9 -14 -2 -20 14 -10 8 6 9 11 3 15 -6 3 -14 1 -17 -5z"/>
<path d="M1496 793 c-6 -15 10 -18 19 -3 4 6 10 8 15 5 5 -3 11 -1 15 5 4 6
-4 9 -19 8 -14 -1 -28 -8 -30 -15z"/>
<path d="M1577 779 c4 -13 8 -18 11 -10 2 7 -1 18 -6 23 -8 8 -9 4 -5 -13z"/>
<path d="M1670 791 c0 -6 11 -23 25 -38 17 -20 24 -23 25 -12 0 8 -9 25 -20
37 -23 24 -30 27 -30 13z"/>
<path d="M1610 780 c0 -5 5 -10 11 -10 5 0 7 5 4 10 -3 6 -8 10 -11 10 -2 0
-4 -4 -4 -10z"/>
<path d="M1775 780 c3 -5 11 -10 16 -10 6 0 7 5 4 10 -3 6 -11 10 -16 10 -6 0
-7 -4 -4 -10z"/>
<path d="M1800 746 c0 -9 5 -16 10 -16 6 0 10 4 10 9 0 6 -4 13 -10 16 -5 3
-10 -1 -10 -9z"/>
<path d="M1795 711 c3 -6 -1 -13 -8 -18 -26 -15 -57 -153 -36 -153 5 0 9 20 9
45 0 25 4 45 9 45 5 0 17 7 25 16 18 17 22 74 5 74 -5 0 -8 -4 -4 -9z"/>
<path d="M1192 681 c8 -14 14 -16 24 -7 14 13 10 19 -16 23 -17 2 -18 0 -8
-16z"/>
<path d="M1240 690 c0 -5 5 -10 11 -10 5 0 7 5 4 10 -3 6 -8 10 -11 10 -2 0
-4 -4 -4 -10z"/>
<path d="M590 675 c0 -16 16 -20 24 -6 3 5 -1 11 -9 15 -9 3 -15 0 -15 -9z"/>
<path d="M1336 665 c-8 -31 12 -75 24 -54 6 8 2 18 -8 26 -16 11 -16 12 2 13
14 0 16 3 7 13 -6 8 -8 17 -4 20 3 4 2 7 -4 7 -6 0 -14 -11 -17 -25z"/>
<path d="M630 654 c0 -3 8 -14 19 -25 14 -15 20 -17 24 -7 2 8 -6 19 -19 25
-13 6 -24 9 -24 7z"/>
<path d="M2632 625 c-17 -37 -14 -45 4 -12 9 16 14 31 11 33 -2 2 -9 -7 -15
-21z"/>
<path d="M693 586 c0 -9 4 -16 9 -16 4 0 8 -5 8 -10 0 -6 11 -23 25 -38 30
-32 34 -14 5 20 -11 12 -26 31 -33 42 -12 16 -14 16 -14 2z"/>
<path d="M1456 586 c3 -8 12 -17 20 -20 8 -3 14 -11 13 -18 -1 -7 0 -20 3 -28
4 -8 9 -24 13 -35 6 -19 7 -19 19 -3 7 10 15 16 18 13 2 -3 5 2 5 11 0 9 -10
20 -22 26 -12 5 -29 23 -39 39 -17 30 -40 41 -30 15z"/>
<path d="M2606 565 c-3 -9 -6 -22 -5 -28 0 -7 5 -1 10 12 5 13 8 26 5 28 -2 2
-6 -3 -10 -12z"/>
<path d="M1402 554 c-7 -8 -25 -14 -41 -14 -35 0 -64 -30 -55 -56 4 -10 18
-29 32 -41 32 -29 100 -30 157 -4 l40 18 -50 -3 c-27 -2 -63 -7 -78 -10 l-29
-7 26 26 c31 31 32 43 7 59 -18 11 -18 13 -3 24 9 7 15 15 12 17 -3 3 -11 -1
-18 -9z m-4 -62 c-3 -24 -23 -51 -39 -52 -4 0 -9 10 -13 23 -5 18 -8 20 -16 7
-7 -12 -10 -8 -10 16 0 29 2 31 41 32 39 2 40 1 37 -26z"/>
<path d="M1357 493 c-12 -11 -8 -23 8 -23 8 0 15 7 15 15 0 16 -12 20 -23 8z"/>
<path d="M1760 509 c-65 -82 -142 -169 -162 -183 -12 -9 -37 -16 -56 -16 -20
0 -31 -4 -27 -10 12 -19 60 -10 105 20 25 16 45 35 45 42 1 7 7 12 14 10 8 -2
23 6 35 16 31 28 44 34 51 22 4 -6 3 -9 -2 -8 -10 3 -126 -93 -119 -99 6 -6
127 85 143 107 10 15 10 19 0 23 -7 3 -5 6 6 6 12 1 17 9 17 28 l0 28 -22 -32
c-13 -18 -27 -33 -32 -33 -5 0 -24 -11 -43 -26 -49 -37 -40 -14 13 34 25 22
43 46 39 51 -3 6 -2 11 2 11 5 0 14 9 21 20 19 32 -1 23 -28 -11z"/>
<path d="M1720 520 c0 -14 -32 -50 -40 -45 -4 3 -18 -7 -31 -22 l-24 -26 25
14 c52 29 106 89 80 89 -5 0 -10 -4 -10 -10z"/>
<path d="M222 508 c2 -6 38 -23 79 -36 185 -61 867 -305 1212 -433 90 -33 127
-38 107 -14 -7 8 -21 15 -31 15 -11 0 -19 7 -19 15 0 8 8 15 18 15 9 0 24 5
32 11 11 7 6 8 -20 3 -19 -3 -36 -10 -38 -15 -5 -12 -53 0 -75 19 -11 9 -17
29 -17 54 0 21 -7 55 -16 76 -10 24 -11 33 -3 24 7 -6 20 -12 29 -11 13 0 13
1 0 6 -8 3 -23 12 -32 21 -16 14 -18 13 -18 -4 0 -10 6 -37 14 -59 7 -22 11
-56 9 -77 l-5 -36 -41 18 c-23 9 -104 41 -180 70 -117 45 -138 56 -134 72 5
16 -2 18 -56 18 -45 0 -88 9 -157 34 -52 19 -94 39 -93 44 1 5 -19 12 -45 16
-75 10 -82 21 -28 45 32 14 78 22 143 26 142 8 137 19 -7 15 -88 -3 -124 -9
-132 -25 -20 -35 -134 -27 -220 15 -23 11 -71 27 -107 36 -36 9 -85 25 -109
35 -51 22 -65 24 -60 7z"/>
<path d="M2585 480 c-4 -23 -5 -43 -2 -46 2 -3 7 14 11 37 4 23 5 44 2 46 -2
2 -7 -14 -11 -37z"/>
<path d="M1465 479 c-4 -6 -5 -12 -2 -15 2 -3 7 2 10 11 7 17 1 20 -8 4z"/>
<path d="M1022 415 c32 -18 44 -50 28 -70 -10 -13 -7 -15 19 -15 17 0 31 1 31
3 0 21 -44 86 -62 91 -38 10 -45 6 -16 -9z"/>
<path d="M1636 415 c-17 -13 -18 -17 -6 -28 8 -6 11 -8 7 -3 -4 5 0 18 10 28
19 22 15 23 -11 3z"/>
<path d="M270 416 c0 -2 7 -7 16 -10 8 -3 12 -2 9 4 -6 10 -25 14 -25 6z"/>
<path d="M2570 401 c0 -25 6 -27 13 -6 4 8 2 17 -3 20 -6 4 -10 -3 -10 -14z"/>
<path d="M320 400 c0 -6 7 -10 15 -10 8 0 15 2 15 4 0 2 -7 6 -15 10 -8 3 -15
1 -15 -4z"/>
<path d="M380 400 c20 -13 33 -13 25 0 -3 6 -14 10 -23 10 -15 0 -15 -2 -2
-10z"/>
<path d="M1797 385 c-23 -32 -99 -84 -156 -106 -25 -10 -39 -18 -30 -19 10 0
43 14 74 30 31 17 60 30 63 30 14 0 -33 -40 -60 -51 -29 -12 -30 -13 -9 -21
29 -10 52 5 86 61 16 25 32 48 36 51 7 5 23 50 17 50 -2 0 -11 -12 -21 -25z"/>
<path d="M1558 384 c-16 -8 -28 -11 -28 -7 0 4 -4 2 -9 -6 -7 -11 -19 -12 -58
-4 -48 9 -49 9 -45 -13 4 -23 52 -75 52 -57 0 6 -7 13 -15 17 -8 3 -15 14 -15
24 0 15 5 18 26 14 14 -2 28 -11 31 -18 3 -8 9 -14 15 -14 5 0 7 4 3 10 -8 13
48 40 71 34 15 -4 20 0 20 15 0 25 -11 26 -48 5z"/>
<path d="M1873 365 c12 -24 47 -35 47 -15 0 6 -7 10 -15 10 -9 0 -18 7 -21 15
-4 8 -10 15 -14 15 -5 0 -3 -11 3 -25z"/>
<path d="M350 360 c-13 -8 -12 -10 3 -10 9 0 17 5 17 10 0 12 -1 12 -20 0z"/>
<path d="M382 365 c10 -10 58 -16 58 -7 0 4 -14 9 -32 10 -18 2 -29 0 -26 -3z"/>
<path d="M1964 345 c8 -9 13 -22 10 -29 -4 -9 7 -18 33 -26 21 -6 54 -17 73
-25 67 -26 75 -28 86 -26 22 3 25 -33 6 -59 -11 -14 -30 -50 -42 -79 -21 -48
-25 -52 -49 -47 -22 5 -23 5 -8 -5 12 -7 16 -17 12 -30 -4 -10 -2 -19 4 -19
13 0 46 48 56 80 4 14 24 54 45 90 21 36 47 82 56 103 19 40 41 51 94 45 22
-2 40 -12 53 -30 21 -28 34 -110 23 -153 -8 -31 -75 -107 -88 -99 -5 3 -15 0
-23 -6 -8 -7 -32 -14 -52 -17 -53 -7 -54 -13 -2 -13 45 0 106 26 145 61 25 23
34 24 34 4 0 -8 -5 -15 -12 -15 -6 0 -9 -3 -6 -6 3 -3 45 11 92 30 118 49 183
46 250 -13 17 -15 18 -15 15 3 -2 10 -13 24 -24 30 -11 6 -23 16 -27 21 -9 13
-155 17 -177 4 -39 -22 -100 -41 -111 -34 -4 2 -1 32 6 66 13 63 12 71 -13
127 -16 37 -44 57 -91 66 -52 9 -90 -16 -115 -77 -18 -44 -22 -48 -27 -28 -5
23 -16 27 -171 64 -14 4 -31 18 -37 32 -6 14 -16 25 -22 25 -7 0 -5 -7 4 -15z"/>
<path d="M1825 340 c-4 -6 -11 -7 -17 -4 -7 4 -8 2 -4 -5 6 -9 11 -9 22 0 14
11 18 19 10 19 -3 0 -8 -5 -11 -10z"/>
<path d="M993 333 c9 -2 23 -2 30 0 6 3 -1 5 -18 5 -16 0 -22 -2 -12 -5z"/>
<path d="M1790 264 c-74 -76 -133 -112 -208 -129 -18 -3 -30 -10 -27 -15 9
-14 116 20 170 55 29 18 67 51 85 74 18 22 37 39 43 38 6 -1 12 10 13 26 2 15
2 27 1 27 -1 0 -36 -34 -77 -76z"/>
<path d="M578 323 c7 -3 16 -2 19 1 4 3 -2 6 -13 5 -11 0 -14 -3 -6 -6z"/>
<path d="M2695 319 c4 -6 9 -8 12 -5 3 3 15 1 27 -5 20 -10 20 -10 2 5 -22 18
-51 22 -41 5z"/>
<path d="M1420 295 c0 -8 7 -15 16 -15 14 0 14 3 4 15 -7 8 -14 15 -16 15 -2
0 -4 -7 -4 -15z"/>
<path d="M1890 290 c0 -5 5 -10 11 -10 5 0 7 5 4 10 -3 6 -8 10 -11 10 -2 0
-4 -4 -4 -10z"/>
<path d="M1467 270 c7 -7 38 -15 70 -16 l58 -3 -56 8 c-31 4 -62 12 -70 16
-11 6 -12 5 -2 -5z"/>
<path d="M420 266 c0 -2 7 -7 16 -10 8 -3 12 -2 9 4 -6 10 -25 14 -25 6z"/>
<path d="M1852 228 c-12 -24 -21 -46 -20 -49 2 -3 -3 -13 -11 -22 -7 -10 -9
-17 -4 -17 5 0 22 26 38 58 16 31 30 60 32 65 2 4 1 7 -4 7 -4 0 -18 -19 -31
-42z"/>
<path d="M1916 235 c-3 -9 -6 -22 -5 -28 0 -7 5 -1 10 12 5 13 8 26 5 28 -2 2
-6 -3 -10 -12z"/>
<path d="M1656 226 c-16 -7 -24 -16 -18 -20 5 -3 21 3 33 14 28 22 25 23 -15
6z"/>
<path d="M1677 207 c-24 -18 -42 -22 -107 -22 -44 0 -82 -4 -86 -8 -4 -4 31
-7 77 -7 66 0 91 4 117 20 17 11 32 24 32 30 0 13 0 13 -33 -13z"/>
<path d="M1554 211 c5 -8 56 -3 56 5 0 2 -14 4 -31 4 -16 0 -28 -4 -25 -9z"/>
<path d="M1940 181 c0 -12 -6 -34 -14 -50 -14 -26 -82 -92 -122 -119 -16 -11
-15 -11 6 -1 46 21 129 111 136 147 4 18 4 36 0 39 -3 4 -6 -4 -6 -16z"/>
<path d="M1505 130 c27 -12 43 -12 25 0 -8 5 -22 9 -30 9 -10 0 -8 -3 5 -9z"/>
<path d="M2002 66 c7 -8 15 -12 17 -11 5 6 -10 25 -20 25 -5 0 -4 -6 3 -14z"/>
<path d="M2473 3 c31 -2 83 -2 115 0 31 2 5 3 -58 3 -63 0 -89 -1 -57 -3z"/>
</g>
</svg>
