<?xml version="1.0" standalone="no"?>
<!DOCTYPE svg PUBLIC "-//W3C//DTD SVG 20010904//EN"
 "http://www.w3.org/TR/2001/REC-SVG-20010904/DTD/svg10.dtd">
<svg version="1.0" xmlns="http://www.w3.org/2000/svg"
 width="300.000000pt" height="200.000000pt" viewBox="0 0 300.000000 200.000000"
 preserveAspectRatio="xMidYMid meet">
<metadata>
Created by potrace 1.10, written by Peter Selinger 2001-2011
</metadata>
<g transform="translate(0.000000,200.000000) scale(0.100000,-0.100000)"
fill="#000000" stroke="none">
<path d="M710 1178 c-85 -13 -182 -65 -235 -127 l-20 -24 21 7 c15 5 24 2 28
-9 3 -9 10 -14 14 -11 5 3 7 -7 4 -22 -3 -21 -2 -25 8 -15 8 7 10 22 6 39 -5
19 -10 24 -15 15 -6 -10 -10 -9 -14 3 -8 20 42 62 113 94 76 36 179 36 274 2
76 -28 110 -63 163 -169 34 -69 51 -228 25 -248 -19 -15 -33 -8 -25 13 5 13 7
13 14 2 7 -10 9 -10 9 2 0 8 -3 26 -7 38 -4 18 -8 20 -14 10 -6 -9 -9 -6 -10
12 l-1 25 -8 -25 c-8 -25 -8 -25 -9 4 -1 34 -6 32 -15 -6 -5 -21 -3 -26 12
-24 21 4 32 -12 24 -32 -4 -13 -7 -12 -13 4 -7 18 -8 18 -8 -1 -1 -17 -3 -18
-12 -5 -7 10 -9 11 -7 2 2 -8 7 -13 12 -12 4 1 16 -9 27 -21 18 -21 18 -22 -2
-48 -11 -14 -37 -44 -57 -66 -20 -22 -37 -44 -37 -50 -1 -5 -7 -9 -15 -7 -7 2
-34 -2 -60 -8 -26 -6 -60 -11 -76 -11 -16 1 -68 2 -116 3 -77 1 -86 3 -85 20
1 11 7 17 17 15 8 -2 14 -9 12 -15 -1 -7 3 -12 9 -12 6 0 8 7 5 16 -5 12 -1
14 17 9 17 -4 16 -2 -6 10 -42 24 -67 27 -60 8 4 -11 2 -14 -6 -9 -6 4 -10 4
-9 -1 3 -8 -5 -13 -22 -13 -5 0 -7 8 -3 18 3 9 3 14 -2 10 -11 -11 -68 69 -59
83 4 8 3 9 -4 5 -7 -4 -12 -1 -12 8 0 9 -5 16 -11 16 -5 0 -7 5 -4 11 9 14 -3
59 -16 59 -6 0 -8 -9 -4 -21 4 -12 9 -29 10 -38 2 -9 4 -17 5 -18 2 -2 3 -6 4
-10 8 -34 22 -62 39 -81 18 -19 18 -22 4 -16 -13 5 -16 2 -11 -9 3 -9 12 -13
19 -11 7 3 16 1 20 -5 3 -6 -1 -11 -9 -11 -8 0 -18 -5 -22 -12 -4 -7 -3 -8 4
-4 7 4 12 3 12 -3 0 -12 -36 -24 -49 -17 -5 3 -14 -1 -21 -9 -14 -17 -30 -20
-30 -4 0 5 4 7 10 4 6 -3 10 -1 10 4 0 6 -7 11 -15 11 -13 0 -19 12 -16 32 0
4 -6 5 -13 2 -24 -9 -27 -33 -6 -44 21 -11 28 -40 10 -40 -5 0 -10 5 -10 12 0
6 -6 4 -13 -6 -12 -17 -14 -17 -27 -1 -12 14 -12 18 1 26 12 7 12 9 0 9 -8 0
-19 7 -25 14 -21 28 -59 29 -89 4 l-27 -24 20 -22 c17 -18 18 -25 8 -47 -7
-17 -17 -24 -27 -20 -9 3 -5 -5 9 -16 16 -15 21 -23 13 -26 -7 -3 -13 -9 -13
-15 0 -6 6 -6 15 2 8 7 15 9 15 6 0 -4 8 -3 17 2 11 7 21 5 31 -4 7 -8 21 -14
30 -13 14 0 13 2 -3 9 -11 5 -15 9 -8 9 7 1 10 7 7 14 -5 14 -44 18 -44 5 0
-4 -7 -8 -15 -8 -8 0 -15 4 -15 9 0 16 27 31 45 25 15 -6 15 -4 4 14 -7 11
-16 20 -20 19 -4 -1 -6 1 -6 5 1 4 -8 15 -20 23 -22 15 -34 43 -13 30 5 -3 25
-7 45 -9 23 -1 41 -10 51 -24 8 -12 25 -22 38 -22 12 0 27 -5 33 -11 9 -9 11
-7 7 8 -6 22 17 45 24 25 3 -9 9 -9 23 -2 16 9 19 7 19 -10 0 -11 -5 -20 -11
-20 -5 0 -7 5 -3 12 5 7 3 8 -5 3 -18 -10 2 -27 22 -19 9 3 17 10 17 15 0 5 5
9 10 9 6 0 10 -9 10 -20 0 -11 -4 -20 -8 -20 -5 0 -7 -19 -6 -42 1 -24 -2 -49
-8 -55 -7 -9 -7 -13 1 -13 13 0 26 45 16 59 -3 6 -1 11 4 11 6 0 11 -4 11 -10
0 -16 27 -12 34 5 7 19 46 20 46 1 0 -12 7 -13 32 -5 18 5 34 5 37 1 4 -4 12
-7 19 -6 6 1 17 2 23 3 8 1 10 14 6 37 -5 32 -4 35 16 29 17 -5 19 -4 7 4 -13
10 -13 11 0 11 12 1 11 3 -2 11 -10 5 -18 18 -18 28 0 21 26 36 36 20 3 -6 25
-7 52 -3 26 3 61 6 77 6 17 -1 24 2 18 4 -26 11 -12 22 17 14 23 -7 30 -5 30
6 0 17 12 18 29 2 11 -10 13 -10 7 0 -4 6 -2 12 3 12 6 0 11 -4 11 -10 0 -5 5
-10 11 -10 5 0 8 4 5 9 -7 10 40 25 67 22 15 -2 17 2 12 18 -4 12 -2 21 4 21
6 0 11 -4 11 -10 0 -5 6 -10 14 -10 8 0 21 -9 29 -21 14 -20 16 -20 46 -4 18
9 41 13 51 10 12 -4 20 -2 20 6 0 8 -11 10 -34 6 -27 -4 -33 -2 -32 11 1 11
-7 17 -21 18 -13 1 -29 6 -36 12 -10 9 -14 8 -14 -3 0 -8 4 -12 8 -10 3 3 12
-2 19 -11 11 -12 15 -12 21 -2 7 10 9 9 9 -4 0 -10 -5 -18 -10 -18 -18 0 -60
32 -60 45 0 7 -7 18 -15 25 -10 9 -15 9 -15 1 0 -6 5 -11 11 -11 5 0 7 -5 4
-10 -4 -6 -11 -8 -16 -5 -5 4 -9 1 -9 -6 0 -16 -31 -38 -47 -32 -20 8 -15 21
10 26 15 3 13 4 -5 2 -16 -1 -28 2 -28 7 0 4 6 8 13 8 7 0 19 16 26 35 6 19
18 34 24 32 7 -1 11 3 10 10 -2 7 3 10 10 7 10 -3 12 9 9 53 -3 47 -1 56 9 46
7 -7 22 -13 32 -13 16 0 17 3 7 15 -6 8 -9 19 -5 26 6 8 2 8 -13 0 -19 -10
-21 -8 -27 33 -4 25 -4 49 0 55 3 6 2 11 -2 11 -8 0 -34 56 -30 64 1 2 -6 13
-16 24 -11 12 -16 26 -11 34 4 7 4 10 -1 6 -4 -4 -25 14 -45 40 -39 49 -60 63
-120 81 -68 21 -126 27 -180 19z m321 -624 c11 -13 9 -14 -14 -9 -18 5 -27 3
-27 -5 0 -6 -5 -8 -12 -4 -7 5 -5 11 7 21 24 17 30 16 46 -3z m-741 -44 c0 -5
-4 -10 -10 -10 -5 0 -10 5 -10 10 0 6 5 10 10 10 6 0 10 -4 10 -10z m270 -10
c16 -16 17 -20 5 -20 -8 0 -15 5 -15 11 0 5 -4 8 -8 5 -5 -3 -9 1 -9 9 0 19 3
19 27 -5z m-10 -39 c0 -3 14 -12 30 -19 17 -8 30 -20 30 -28 0 -12 4 -12 19
-2 11 7 18 15 15 19 -2 4 0 10 6 14 5 3 10 1 10 -6 0 -8 12 -9 38 -4 38 7 36
-8 -3 -18 -19 -5 -19 -5 1 -12 15 -5 20 -13 17 -26 -6 -21 -16 -24 -43 -9 -13
7 -21 7 -25 -1 -5 -7 -15 -5 -31 6 -22 14 -26 14 -50 -1 -34 -23 -50 -7 -36
33 6 17 11 21 11 11 1 -11 8 -17 19 -15 19 3 24 23 5 21 -7 -1 -13 1 -13 5 0
3 -14 12 -32 20 -28 13 -30 15 -12 21 20 8 44 3 44 -9z m97 6 c20 13 27 15 31
5 3 -10 7 -10 18 -1 21 17 29 3 10 -16 -11 -12 -20 -13 -33 -6 -13 7 -23 5
-35 -6 -13 -11 -21 -12 -38 -3 -17 9 -19 14 -9 26 11 14 14 13 21 0 8 -14 12
-14 35 1z m-390 -74 c-17 -18 -22 -8 -11 22 5 12 10 13 17 6 8 -8 6 -16 -6
-28z"/>
<path d="M916 1094 c-3 -9 -11 -12 -18 -8 -7 4 -6 -1 3 -12 9 -10 19 -26 22
-34 4 -11 6 -9 7 5 1 19 1 19 14 2 12 -16 14 -16 20 -1 10 26 7 41 -9 48 -13
5 -14 2 -4 -15 10 -19 9 -20 -10 -10 -12 7 -18 17 -15 26 4 8 4 15 1 15 -3 0
-8 -7 -11 -16z"/>
<path d="M793 1071 c-5 -3 -3 -21 4 -41 l14 -35 -5 38 c-4 33 -3 37 9 27 8 -7
15 -21 15 -31 0 -10 5 -21 10 -24 6 -3 10 3 10 14 0 11 -4 23 -10 26 -5 3 -10
11 -10 17 0 15 31 -12 40 -37 8 -18 9 -18 10 5 1 24 1 24 15 6 12 -16 15 -17
15 -4 0 8 -7 22 -17 29 -17 15 -84 21 -100 10z m87 -11 c0 -5 -2 -10 -4 -10
-3 0 -8 5 -11 10 -3 6 -1 10 4 10 6 0 11 -4 11 -10z"/>
<path d="M683 1032 c0 -42 10 -49 20 -13 3 11 -1 28 -8 37 -11 15 -12 12 -12
-24z"/>
<path d="M714 1054 c3 -9 6 -28 7 -42 0 -25 1 -26 9 -5 10 24 2 63 -12 63 -6
0 -7 -7 -4 -16z"/>
<path d="M751 1060 c1 -8 4 -26 8 -40 7 -25 7 -25 13 -3 3 12 0 30 -8 40 -10
14 -13 15 -13 3z"/>
<path d="M557 1048 c-13 -10 -15 -19 -8 -43 8 -25 9 -26 10 -7 1 12 6 22 12
22 6 0 9 -7 6 -15 -4 -8 -3 -16 2 -19 4 -3 12 13 18 34 5 22 6 37 2 34 -5 -3
-9 -12 -9 -20 0 -8 -4 -13 -10 -9 -5 3 -7 12 -3 20 6 18 2 19 -20 3z"/>
<path d="M620 1041 c0 -11 -4 -23 -10 -26 -12 -7 -13 -25 -2 -25 5 0 13 16 19
35 6 20 7 35 2 35 -5 0 -9 -9 -9 -19z"/>
<path d="M646 1028 c-3 -17 -4 -33 -1 -36 8 -8 13 1 18 36 7 41 -8 42 -17 0z"/>
<path d="M436 1013 c-6 -14 -5 -15 5 -6 7 7 10 15 7 18 -3 3 -9 -2 -12 -12z"/>
<path d="M473 1012 c-8 -5 -8 -12 3 -27 13 -18 14 -18 12 8 -1 15 -3 27 -3 27
0 0 -5 -4 -12 -8z"/>
<path d="M502 980 c0 -14 2 -19 5 -12 2 6 2 18 0 25 -3 6 -5 1 -5 -13z"/>
<path d="M2097 984 c2 -7 11 -10 19 -7 19 7 18 10 -5 16 -13 3 -18 1 -14 -9z"/>
<path d="M430 969 c-12 -22 -16 -96 -6 -106 3 -4 6 15 6 40 0 36 5 50 20 59
24 15 26 28 5 28 -8 0 -19 -9 -25 -21z"/>
<path d="M1570 960 c0 -5 5 -10 11 -10 5 0 7 5 4 10 -3 6 -8 10 -11 10 -2 0
-4 -4 -4 -10z"/>
<path d="M1700 945 c0 -2 10 -10 23 -16 20 -11 21 -11 8 4 -13 16 -31 23 -31
12z"/>
<path d="M480 923 c1 -14 27 -43 39 -43 17 0 13 14 -9 33 -22 18 -30 21 -30
10z"/>
<path d="M1442 904 c-7 -8 -8 -14 -3 -14 10 0 25 19 20 25 -2 1 -10 -3 -17
-11z"/>
<path d="M2790 911 c0 -12 49 -66 54 -60 2 2 0 14 -5 26 -8 23 -49 51 -49 34z"/>
<path d="M2064 883 c2 -10 6 -16 11 -15 4 2 11 -2 15 -8 5 -9 9 -9 14 -1 4 6
2 11 -3 11 -6 0 -11 7 -11 15 0 8 -6 15 -14 15 -8 0 -13 -8 -12 -17z"/>
<path d="M2504 881 c1 -17 43 -34 51 -21 4 6 -5 10 -19 10 -13 0 -26 6 -29 13
-3 8 -4 7 -3 -2z"/>
<path d="M2590 890 c0 -5 5 -10 11 -10 5 0 7 5 4 10 -3 6 -8 10 -11 10 -2 0
-4 -4 -4 -10z"/>
<path d="M2934 893 c10 -11 37 -12 30 -2 -3 5 -12 9 -21 9 -9 0 -13 -3 -9 -7z"/>
<path d="M2701 884 c0 -7 -12 -15 -26 -18 -27 -7 -32 -18 -12 -33 15 -12 47
-13 47 -1 0 4 11 8 25 8 18 0 23 4 18 16 -3 9 -13 14 -24 11 -11 -3 -20 1 -22
12 -3 9 -5 11 -6 5z"/>
<path d="M553 865 c0 -8 4 -12 9 -9 5 3 6 10 3 15 -9 13 -12 11 -12 -6z"/>
<path d="M1431 864 c0 -11 3 -14 6 -6 3 7 2 16 -1 19 -3 4 -6 -2 -5 -13z"/>
<path d="M1900 866 c0 -17 25 -15 42 2 9 9 6 12 -15 12 -17 0 -27 -5 -27 -14z"/>
<path d="M2281 864 c-7 -8 -10 -18 -6 -22 3 -3 10 0 15 8 7 12 11 12 27 0 16
-13 16 -12 -1 8 -11 12 -20 22 -20 22 -1 -1 -7 -8 -15 -16z"/>
<path d="M521 853 c7 -10 15 -20 16 -22 2 -2 3 5 3 17 0 14 -6 22 -16 22 -14
0 -15 -3 -3 -17z"/>
<path d="M1558 863 c7 -3 16 -2 19 1 4 3 -2 6 -13 5 -11 0 -14 -3 -6 -6z"/>
<path d="M2410 845 c0 -2 12 -15 26 -28 25 -24 64 -26 64 -5 0 6 -7 7 -16 4
-8 -3 -12 -2 -9 4 3 6 -5 10 -19 10 -14 0 -26 5 -26 10 0 6 -4 10 -10 10 -5 0
-10 -2 -10 -5z"/>
<path d="M1858 833 c7 -3 16 -2 19 1 4 3 -2 6 -13 5 -11 0 -14 -3 -6 -6z"/>
<path d="M2172 818 c5 -15 28 -23 28 -10 0 5 -7 13 -16 16 -10 4 -14 1 -12 -6z"/>
<path d="M2910 816 c0 -9 5 -16 11 -16 5 0 7 -4 4 -10 -3 -5 0 -10 8 -10 21 0
16 44 -5 48 -11 2 -18 -3 -18 -12z"/>
<path d="M929 793 c-3 -18 -2 -33 3 -33 4 0 9 -10 9 -22 1 -14 3 -17 5 -8 3 9
1 33 -4 55 l-8 40 -5 -32z"/>
<path d="M962 772 c2 -28 6 -52 10 -52 9 0 4 87 -6 97 -4 4 -6 -16 -4 -45z"/>
<path d="M988 795 c-3 -14 -2 -25 2 -25 4 0 10 11 12 25 3 14 2 25 -2 25 -4 0
-10 -11 -12 -25z"/>
<path d="M1240 809 c0 -24 28 -45 42 -31 8 8 6 13 -8 18 -10 4 -22 12 -26 18
-5 7 -8 5 -8 -5z"/>
<path d="M2546 804 c-5 -14 -4 -15 9 -4 17 14 19 20 6 20 -5 0 -12 -7 -15 -16z"/>
<path d="M900 787 c0 -15 -4 -27 -10 -27 -5 0 -10 6 -10 14 0 8 -4 17 -8 20
-5 3 -9 -8 -9 -24 0 -17 4 -30 9 -30 4 0 8 -7 8 -15 0 -8 5 -15 10 -15 7 0 7
6 0 20 -8 14 -8 20 0 20 6 0 15 -10 20 -22 7 -17 8 -9 4 27 -7 56 -14 72 -14
32z"/>
<path d="M1660 801 c0 -6 -6 -10 -12 -8 -7 1 -12 -6 -12 -15 1 -10 -2 -18 -7
-18 -5 0 -9 -7 -9 -15 0 -8 -7 -15 -15 -15 -8 0 -15 -6 -15 -13 0 -9 16 -13
52 -13 44 0 48 1 24 9 -20 7 -26 15 -24 31 2 16 9 21 31 19 24 -2 26 1 17 17
-12 23 -30 35 -30 21z"/>
<path d="M2210 800 c0 -5 5 -10 10 -10 6 0 9 -3 9 -7 -3 -19 2 -23 15 -11 10
9 11 17 4 26 -12 14 -38 16 -38 2z"/>
<path d="M2760 802 c0 -19 36 -41 58 -35 22 5 32 33 12 33 -5 0 -10 -4 -10
-10 0 -15 -27 -12 -44 6 -9 8 -16 11 -16 6z"/>
<path d="M1372 792 c-8 -6 -2 -9 17 -9 17 0 28 4 25 9 -7 10 -25 10 -42 0z"/>
<path d="M1430 790 c0 -5 7 -10 16 -10 8 0 12 5 9 10 -3 6 -10 10 -16 10 -5 0
-9 -4 -9 -10z"/>
<path d="M1735 779 c-4 -11 -4 -23 -1 -26 3 -4 6 1 6 10 0 8 5 17 12 19 9 3 9
6 1 11 -7 4 -14 -1 -18 -14z"/>
<path d="M1980 786 c0 -17 28 -41 37 -32 3 3 0 6 -8 6 -12 0 -11 2 1 10 13 9
13 11 0 20 -21 13 -30 12 -30 -4z"/>
<path d="M351 781 c-10 -6 -9 -10 3 -14 8 -3 18 -2 21 3 8 13 -9 20 -24 11z"/>
<path d="M431 774 c0 -11 3 -14 6 -6 3 7 2 16 -1 19 -3 4 -6 -2 -5 -13z"/>
<path d="M1535 780 c-3 -5 0 -19 8 -30 13 -18 15 -19 21 -5 10 27 7 45 -8 45
-8 0 -18 -4 -21 -10z"/>
<path d="M2386 776 c3 -9 -3 -17 -15 -21 -27 -8 -27 -25 -1 -25 11 0 20 7 20
15 0 8 7 15 16 15 14 0 14 3 4 15 -16 19 -31 20 -24 1z"/>
<path d="M830 754 c0 -18 8 -38 20 -49 25 -23 25 -18 0 36 -19 43 -20 43 -20
13z"/>
<path d="M2125 770 c-9 -15 4 -30 26 -30 12 0 19 7 19 20 0 21 -33 29 -45 10z"/>
<path d="M25 760 c3 -5 8 -10 11 -10 2 0 4 5 4 10 0 6 -5 10 -11 10 -5 0 -7
-4 -4 -10z"/>
<path d="M791 744 c5 -14 6 -31 2 -37 -3 -7 -3 -9 2 -5 4 4 16 -3 26 -15 10
-12 18 -17 19 -10 0 6 -4 14 -9 18 -5 3 -12 18 -16 34 -3 16 -13 32 -20 35
-11 4 -12 0 -4 -20z"/>
<path d="M1825 750 c4 -11 2 -20 -4 -20 -6 0 -8 -7 -4 -15 8 -21 28 -13 28 11
0 20 10 22 58 9 43 -11 32 9 -13 23 -58 18 -73 16 -65 -8z"/>
<path d="M2050 760 c0 -5 5 -10 11 -10 5 0 7 5 4 10 -3 6 -8 10 -11 10 -2 0
-4 -4 -4 -10z"/>
<path d="M2490 755 c0 -16 16 -20 24 -6 3 5 -1 11 -9 15 -9 3 -15 0 -15 -9z"/>
<path d="M2540 762 c0 -6 6 -13 13 -16 8 -3 6 -9 -8 -21 -17 -13 -18 -17 -5
-25 17 -10 26 1 32 40 2 17 -2 26 -14 28 -10 2 -18 -1 -18 -6z"/>
<path d="M2681 763 c-1 -6 -10 -9 -21 -6 -14 4 -20 0 -20 -11 0 -10 5 -14 10
-11 17 11 32 -5 19 -21 -9 -11 -8 -14 5 -14 22 0 29 21 17 51 -5 13 -10 19
-10 12z"/>
<path d="M992 740 c0 -14 2 -19 5 -12 2 6 2 18 0 25 -3 6 -5 1 -5 -13z"/>
<path d="M1306 731 c5 -24 3 -31 -9 -31 -8 0 -17 -4 -19 -9 -6 -19 -57 -20
-75 -3 -19 20 -23 19 -35 -2 -5 -9 -22 -16 -39 -16 -18 0 -28 -4 -24 -10 3 -5
19 -10 36 -10 22 0 29 -5 29 -20 0 -29 15 -24 16 6 2 33 10 40 29 24 13 -11
23 -11 55 0 21 7 48 10 59 7 17 -4 20 -1 17 29 -1 18 -4 35 -7 37 -2 1 -12 9
-21 16 -16 12 -17 11 -12 -18z"/>
<path d="M2316 747 c3 -10 9 -15 12 -12 3 3 0 11 -7 18 -10 9 -11 8 -5 -6z"/>
<path d="M2725 749 c-10 -15 1 -23 20 -15 9 3 13 10 10 16 -8 13 -22 13 -30
-1z"/>
<path d="M2966 752 c-2 -4 4 -14 15 -20 19 -12 19 -11 9 8 -12 22 -16 24 -24
12z"/>
<path d="M66 735 c-3 -9 0 -15 9 -15 16 0 20 16 6 24 -5 3 -11 -1 -15 -9z"/>
<path d="M748 739 c6 -7 12 -19 12 -27 0 -14 38 -51 54 -52 5 0 0 10 -12 23
-12 13 -22 28 -22 35 0 6 -10 17 -22 23 -19 9 -21 9 -10 -2z"/>
<path d="M1696 733 c-6 -14 -5 -15 5 -6 7 7 10 15 7 18 -3 3 -9 -2 -12 -12z"/>
<path d="M2186 734 c-9 -24 -8 -27 13 -21 11 3 28 -1 39 -9 20 -14 66 -8 56 7
-3 5 -15 9 -27 9 -12 0 -31 7 -41 15 -25 19 -32 19 -40 -1z"/>
<path d="M2781 734 c0 -11 3 -14 6 -6 3 7 2 16 -1 19 -3 4 -6 -2 -5 -13z"/>
<path d="M2840 740 c0 -13 11 -13 30 0 12 8 11 10 -7 10 -13 0 -23 -4 -23 -10z"/>
<path d="M2117 729 c7 -7 15 -10 18 -7 3 3 -2 9 -12 12 -14 6 -15 5 -6 -5z"/>
<path d="M2598 733 c7 -3 16 -2 19 1 4 3 -2 6 -13 5 -11 0 -14 -3 -6 -6z"/>
<path d="M2920 730 c-12 -8 -12 -10 3 -16 21 -8 35 2 21 16 -5 5 -15 6 -24 0z"/>
<path d="M400 720 c0 -5 5 -10 11 -10 6 0 8 -9 4 -20 -4 -13 -1 -22 9 -26 22
-8 20 -21 -5 -35 -15 -8 -24 -8 -32 0 -7 7 -14 6 -22 -5 -10 -14 -14 -14 -26
-3 -23 22 -59 40 -59 31 0 -11 -51 -36 -65 -33 -5 2 -16 4 -23 5 -7 1 -18 8
-24 14 -16 16 -41 16 -32 0 4 -7 -2 -5 -13 5 -14 13 -23 15 -28 7 -5 -8 -11
-8 -19 0 -15 11 -76 2 -76 -11 0 -5 17 -9 38 -9 47 0 103 -16 114 -32 5 -9 8
-8 8 5 0 17 1 17 16 3 19 -20 48 -20 64 -1 9 11 17 12 30 5 10 -6 31 -10 45
-10 15 0 33 -7 41 -15 8 -8 21 -12 29 -8 10 3 19 -5 28 -24 6 -16 17 -28 24
-26 7 2 21 -1 32 -7 21 -11 27 -4 13 17 -4 6 -14 11 -22 10 -8 -1 -16 2 -17 8
-2 5 3 10 10 11 26 2 28 5 13 19 -16 16 -30 20 -22 6 3 -5 -1 -12 -9 -15 -24
-9 -31 23 -9 39 10 7 23 11 28 8 5 -3 7 -2 5 3 -2 5 -12 30 -23 57 -17 43 -36
62 -36 37z m-5 -120 c3 -5 -1 -10 -9 -10 -9 0 -16 5 -16 10 0 6 4 10 9 10 6 0
13 -4 16 -10z"/>
<path d="M726 700 c16 -30 54 -64 63 -55 3 3 -5 12 -17 21 -12 8 -22 21 -22
29 0 8 -9 19 -19 25 -19 9 -19 8 -5 -20z"/>
<path d="M1725 721 c-3 -6 -3 -12 2 -12 47 -7 63 -6 63 2 0 5 -6 9 -14 9 -8 0
-21 3 -29 6 -8 3 -18 1 -22 -5z"/>
<path d="M1987 714 c6 -17 33 -19 33 -1 0 7 -9 13 -19 14 -14 1 -18 -3 -14
-13z"/>
<path d="M681 704 c9 -10 20 -29 23 -41 4 -13 10 -22 14 -21 4 1 18 -4 32 -11
21 -11 20 -8 -7 19 -18 17 -33 35 -33 40 0 5 -10 15 -22 21 -22 11 -22 11 -7
-7z"/>
<path d="M1461 704 c0 -11 3 -14 6 -6 3 7 2 16 -1 19 -3 4 -6 -2 -5 -13z"/>
<path d="M2060 710 c0 -5 6 -10 14 -10 8 0 16 -9 18 -20 2 -14 7 -17 18 -10
13 8 11 12 -7 30 -24 22 -43 26 -43 10z"/>
<path d="M2330 709 c0 -5 5 -7 10 -4 6 3 10 8 10 11 0 2 -4 4 -10 4 -5 0 -10
-5 -10 -11z"/>
<path d="M2440 695 c0 -30 16 -33 23 -6 3 12 -1 22 -9 25 -10 4 -14 -2 -14
-19z"/>
<path d="M2815 700 c4 -11 2 -20 -4 -20 -6 0 -11 5 -11 10 0 6 -5 10 -10 10
-6 0 -10 -8 -8 -17 2 -14 -5 -16 -44 -16 -50 1 -61 -9 -29 -27 26 -13 34 -13
25 2 -4 7 -3 8 4 4 7 -4 12 -14 12 -22 0 -8 5 -14 10 -14 7 0 7 6 0 19 -14 27
-13 30 10 24 11 -3 20 -1 20 5 0 6 15 14 33 18 17 4 26 9 20 11 -7 3 -13 11
-13 19 0 8 -5 14 -11 14 -6 0 -8 -9 -4 -20z"/>
<path d="M2865 711 c-6 -11 9 -23 19 -14 9 9 7 23 -3 23 -6 0 -12 -4 -16 -9z"/>
<path d="M240 696 c0 -18 16 -29 30 -21 6 4 5 12 -4 21 -18 18 -26 18 -26 0z"/>
<path d="M2382 688 c3 -23 38 -39 38 -19 0 6 -7 11 -15 11 -9 0 -12 6 -9 15 4
8 1 15 -6 15 -6 0 -10 -10 -8 -22z"/>
<path d="M2486 695 c-7 -20 3 -65 15 -65 13 0 11 14 -3 28 -10 10 -10 15 2 22
11 7 12 12 4 20 -8 8 -13 7 -18 -5z"/>
<path d="M2630 700 c0 -5 5 -10 10 -10 6 0 10 5 10 10 0 6 -4 10 -10 10 -5 0
-10 -4 -10 -10z"/>
<path d="M2710 694 c0 -11 5 -14 16 -10 9 3 21 6 27 6 16 0 -14 20 -30 20 -7
0 -13 -7 -13 -16z"/>
<path d="M2947 703 c-9 -2 -15 -8 -12 -13 8 -13 -17 -60 -32 -60 -7 0 -17 9
-21 21 -8 20 -8 20 -19 -4 -10 -20 -9 -28 3 -38 12 -10 13 -9 7 7 -6 16 -4 17
9 7 8 -7 18 -10 21 -6 4 3 7 1 7 -5 0 -7 -6 -12 -12 -12 -7 0 -5 -5 5 -11 9
-5 17 -18 17 -28 0 -18 46 -39 58 -26 3 3 0 5 -7 5 -7 0 -9 5 -6 10 5 7 11 8
19 1 8 -7 11 -1 11 24 0 18 -4 37 -9 42 -5 5 -7 1 -3 -8 3 -10 -3 -26 -15 -39
-20 -22 -22 -22 -35 -4 -19 26 -16 32 15 28 l27 -4 -27 12 c-32 14 -34 20 -13
38 12 10 15 9 15 -6 0 -15 2 -16 9 -5 5 7 13 11 19 7 5 -3 13 1 16 10 5 13 1
15 -18 10 -14 -3 -27 -2 -31 3 -7 13 26 30 45 23 13 -5 13 -3 1 11 -7 10 -16
16 -20 16 -3 -1 -14 -3 -24 -6z"/>
<path d="M187 688 c4 -7 8 -17 8 -23 0 -5 8 -11 19 -13 18 -4 18 -3 0 22 -19
25 -42 37 -27 14z"/>
<path d="M330 691 c0 -5 9 -7 20 -4 11 3 20 7 20 9 0 2 -9 4 -20 4 -11 0 -20
-4 -20 -9z"/>
<path d="M1425 690 c-8 -13 -1 -24 14 -19 6 3 7 10 2 18 -6 10 -10 10 -16 1z"/>
<path d="M1520 685 c-10 -12 -9 -15 8 -15 11 0 22 7 26 15 3 9 0 15 -8 15 -7
0 -19 -7 -26 -15z"/>
<path d="M1857 693 c-13 -12 -7 -23 14 -23 11 0 30 -5 42 -11 21 -11 21 -10
-2 15 -24 26 -42 32 -54 19z"/>
<path d="M1927 694 c-3 -4 0 -13 8 -21 8 -8 15 -23 15 -34 0 -11 4 -17 10 -14
5 3 15 -3 21 -13 7 -12 19 -17 31 -14 21 5 21 1 7 41 -6 17 -18 31 -26 31 -12
0 -13 -3 -3 -15 6 -8 10 -20 8 -26 -6 -19 -38 20 -38 47 0 22 -18 32 -33 18z"/>
<path d="M2346 684 c-11 -7 -16 -17 -13 -21 4 -4 15 1 24 10 22 21 14 30 -11
11z"/>
<path d="M2600 689 c0 -18 31 -42 56 -45 34 -4 30 12 -6 25 -16 5 -30 15 -30
20 0 6 -4 11 -10 11 -5 0 -10 -5 -10 -11z"/>
<path d="M1580 681 c0 -5 5 -13 10 -16 6 -3 10 -2 10 4 0 5 -4 13 -10 16 -5 3
-10 2 -10 -4z"/>
<path d="M1732 677 c-5 -7 -12 -22 -15 -34 -4 -20 -2 -22 18 -17 15 4 24 0 28
-10 5 -12 0 -16 -23 -16 -35 0 -36 -2 -14 -35 13 -19 14 -28 5 -39 -10 -12 -5
-15 29 -21 46 -8 50 -16 15 -39 -15 -10 -25 -12 -25 -6 0 6 -4 9 -9 6 -12 -8
-34 20 -38 47 -2 12 -8 24 -14 28 -7 4 -5 8 5 12 9 4 16 -1 19 -11 4 -16 5
-16 6 0 0 9 -9 24 -21 32 -14 10 -17 16 -8 16 11 0 11 3 2 12 -10 10 -14 10
-21 0 -4 -7 -16 -10 -27 -7 -10 4 -4 -2 14 -13 l34 -18 -26 -17 c-30 -20 -52
-22 -62 -5 -4 7 -3 8 4 4 17 -10 15 10 -2 27 -11 11 -12 17 -3 26 6 6 8 11 4
11 -8 0 -47 -38 -47 -46 0 -3 5 -2 10 1 6 3 10 0 10 -8 0 -22 35 -48 60 -45
12 2 25 -3 28 -11 3 -9 -1 -11 -17 -6 -12 4 -21 2 -21 -4 0 -6 3 -10 8 -9 10
4 52 -34 47 -42 -2 -4 2 -7 10 -7 8 0 15 4 15 9 0 4 -5 8 -12 8 -9 0 -9 3 -1
11 16 16 34 2 26 -19 -6 -14 -4 -15 9 -4 12 9 18 10 23 2 4 -7 18 -9 30 -6 13
3 27 1 31 -5 5 -8 10 -6 16 5 6 11 17 15 31 11 19 -5 19 -4 -3 9 -17 9 -27 11
-31 4 -14 -22 -28 2 -19 32 6 22 5 30 -3 29 -45 -5 -62 2 -64 27 0 15 -7 31
-15 36 -10 7 -8 8 7 7 37 -3 45 1 45 21 0 13 -9 22 -25 26 -14 3 -25 12 -25
20 0 16 16 19 25 4 9 -15 25 -12 19 4 -8 20 -31 27 -42 13z m-42 -157 c12 -23
5 -26 -16 -6 -16 17 -18 26 -4 26 5 0 14 -9 20 -20z m10 -40 c0 -5 -7 -10 -15
-10 -8 0 -15 5 -15 10 0 6 7 10 15 10 8 0 15 -4 15 -10z"/>
<path d="M2145 672 c6 -21 4 -23 -14 -17 -15 4 -21 2 -21 -9 0 -13 -4 -14 -27
-3 -16 6 -31 16 -35 22 -4 5 -10 6 -14 2 -9 -9 15 -37 32 -37 7 0 17 -7 22
-16 8 -14 12 -13 34 9 27 27 65 27 75 1 3 -8 10 -14 15 -14 6 0 8 6 5 14 -3 8
-1 17 6 19 8 3 6 11 -7 26 -20 22 -46 28 -46 11 0 -5 10 -10 22 -10 17 0 19
-3 10 -12 -9 -9 -18 -6 -38 13 l-26 24 7 -23z"/>
<path d="M2890 683 c0 -5 5 -15 10 -23 8 -12 10 -11 10 8 0 12 -4 22 -10 22
-5 0 -10 -3 -10 -7z"/>
<path d="M1636 671 c-4 -5 -2 -19 2 -32 8 -20 9 -20 15 -4 6 13 10 15 21 6 9
-8 16 -8 20 -2 4 6 -7 17 -23 26 -16 8 -32 11 -35 6z"/>
<path d="M1800 670 c0 -5 4 -10 9 -10 6 0 13 5 16 10 3 6 -1 10 -9 10 -9 0
-16 -4 -16 -10z"/>
<path d="M340 659 c0 -5 5 -7 10 -4 6 3 10 8 10 11 0 2 -4 4 -10 4 -5 0 -10
-5 -10 -11z"/>
<path d="M679 653 c11 -21 71 -59 71 -45 0 5 -11 14 -25 20 -14 7 -28 19 -31
27 -4 8 -10 15 -15 15 -6 0 -6 -7 0 -17z"/>
<path d="M2258 658 c7 -7 4 -17 -12 -32 -24 -22 -24 -46 0 -46 8 0 14 -4 14
-8 0 -4 9 -8 20 -8 11 0 20 3 20 6 0 11 -41 30 -52 24 -15 -9 -1 14 25 44 11
12 19 22 16 23 -2 0 -12 2 -23 4 -13 3 -15 0 -8 -7z"/>
<path d="M2547 651 c3 -12 11 -17 19 -14 11 4 11 7 -1 19 -19 19 -24 18 -18
-5z"/>
<path d="M650 648 c0 -18 49 -58 72 -58 7 0 1 8 -15 18 -15 10 -34 27 -42 38
-13 17 -14 17 -15 2z"/>
<path d="M1470 650 c-20 -12 18 -26 69 -26 28 1 46 6 49 15 3 9 -1 11 -14 7
-11 -3 -35 -2 -55 3 -21 5 -43 5 -49 1z"/>
<path d="M2296 638 c-3 -13 -4 -25 -3 -28 4 -9 36 -9 42 0 3 5 -1 7 -9 4 -11
-4 -14 1 -12 20 4 32 -9 34 -18 4z"/>
<path d="M2786 628 c-18 -30 -20 -38 -7 -38 5 0 12 11 15 25 5 18 13 25 31 25
14 0 25 3 25 8 0 4 -11 7 -24 7 -16 0 -30 -9 -40 -27z"/>
<path d="M1394 641 c5 -7 -4 -11 -23 -11 -17 0 -31 -4 -31 -9 0 -13 41 -21 58
-12 20 11 52 2 52 -15 0 -16 65 -20 74 -5 9 14 -6 21 -21 9 -11 -9 -17 -9 -24
3 -7 12 -9 12 -9 -1 0 -12 -9 -3 -34 36 -1 1 -12 5 -25 9 -16 5 -21 4 -17 -4z"/>
<path d="M1800 640 c0 -5 5 -10 10 -10 6 0 10 5 10 10 0 6 -4 10 -10 10 -5 0
-10 -4 -10 -10z"/>
<path d="M2340 641 c0 -5 9 -7 20 -4 12 3 22 -1 26 -10 3 -8 13 -13 23 -10 19
5 25 -23 9 -44 -5 -7 -5 -14 2 -18 6 -3 8 -10 5 -15 -3 -4 8 -13 25 -18 18 -7
32 -7 35 -1 4 5 1 10 -4 10 -21 3 -26 4 -38 12 -19 12 -15 35 7 42 20 6 30 55
11 55 -5 0 -7 -9 -4 -20 4 -14 0 -20 -11 -20 -9 0 -13 6 -10 14 6 14 -22 30
-37 20 -5 -3 -9 0 -9 5 0 6 -11 11 -25 11 -14 0 -25 -4 -25 -9z"/>
<path d="M2517 636 c-3 -8 -3 -23 0 -34 2 -11 0 -23 -6 -26 -6 -4 -11 -2 -11
3 0 6 -5 11 -11 11 -8 0 -7 -6 2 -16 12 -15 11 -16 -10 -9 -21 6 -22 5 -10 -8
8 -8 17 -13 22 -10 4 2 7 -1 7 -6 0 -6 5 -11 11 -11 9 0 9 4 0 13 -8 11 -6 18
9 32 19 17 19 17 16 -2 -3 -15 2 -19 22 -18 18 0 26 -5 24 -14 -1 -7 3 -19 9
-27 9 -12 9 -13 -4 -9 -8 4 -18 2 -22 -4 -4 -7 4 -11 19 -11 26 0 38 -19 14
-21 -24 -2 -33 -4 -56 -13 -15 -5 -28 -3 -37 4 -11 9 -15 9 -15 1 0 -6 -7 -11
-15 -11 -8 0 -15 3 -15 8 0 12 -81 44 -96 38 -8 -3 -14 -11 -13 -18 0 -10 2
-10 5 -1 4 8 13 9 29 3 12 -5 25 -8 26 -6 2 1 14 -8 26 -21 21 -22 21 -22 1
-29 -12 -3 -24 -1 -28 6 -4 7 -21 14 -38 15 -16 1 -44 10 -61 18 -17 9 -29 11
-25 6 3 -6 -3 -13 -15 -16 -11 -3 -18 -10 -15 -15 3 -5 12 -7 20 -4 8 3 14 2
14 -2 0 -4 24 -7 53 -7 38 0 59 -5 71 -18 17 -16 20 -16 42 -2 33 21 57 19 82
-8 22 -23 24 -23 77 -10 48 12 57 12 70 -1 8 -8 20 -17 27 -19 21 -9 -17 -34
-62 -41 -37 -6 -58 -21 -46 -33 3 -3 12 0 20 6 10 8 16 9 21 1 3 -6 11 -8 16
-4 5 3 8 0 7 -8 -2 -10 15 -14 66 -16 61 -3 68 -1 57 12 -8 9 -17 14 -21 11
-4 -3 -12 1 -17 8 -15 18 -33 77 -24 77 4 0 8 13 8 29 0 22 -4 28 -16 23 -14
-5 -14 -4 -2 12 13 16 12 17 -12 11 -18 -5 -32 -2 -43 9 -9 10 -19 15 -22 12
-8 -8 19 -36 35 -36 15 0 43 -23 43 -35 0 -4 -14 -4 -31 0 -17 4 -37 8 -43 9
-6 1 -17 5 -23 9 -9 5 -13 2 -13 -9 0 -16 -1 -16 -20 1 -19 18 -20 17 -20 -5
0 -19 -2 -20 -15 -10 -25 21 -17 39 20 46 21 4 37 13 40 25 4 10 9 19 13 20
41 5 50 5 47 -2 -3 -4 2 -10 11 -13 25 -10 27 -7 13 11 -13 17 -13 17 13 0 31
-19 38 -21 38 -9 0 8 -41 23 -105 38 -27 6 -28 7 -8 13 19 5 20 8 9 23 -7 10
-16 15 -19 11 -4 -3 -7 -2 -7 3 0 6 5 15 11 21 7 7 3 12 -16 15 -19 4 -23 2
-16 -5 18 -18 13 -23 -18 -23 -17 0 -30 2 -29 5 0 3 0 15 -1 26 -1 15 -3 17
-10 6 -11 -17 -23 1 -15 23 3 9 4 16 1 16 -3 0 -7 -6 -10 -14z m106 -83 c4 -3
2 -12 -4 -19 -9 -11 -7 -15 6 -20 13 -5 14 -9 4 -15 -8 -5 -18 0 -28 14 -12
16 -12 22 -2 25 11 4 11 6 0 13 -11 7 -11 9 2 9 9 0 19 -3 22 -7z m-103 -119
c0 -2 -7 -4 -15 -4 -8 0 -15 4 -15 10 0 5 7 7 15 4 8 -4 15 -8 15 -10z m208
-121 c-4 -22 -38 -30 -38 -10 0 14 13 24 33 26 5 1 7 -7 5 -16z"/>
<path d="M2594 641 c3 -5 -1 -11 -9 -15 -8 -3 -14 -13 -14 -23 1 -17 2 -17 6
0 2 9 13 17 23 17 13 0 17 5 14 15 -4 8 -10 15 -16 15 -5 0 -7 -4 -4 -9z"/>
<path d="M1217 626 c-15 -12 -15 -15 -2 -26 13 -10 15 -9 15 11 0 22 1 22 31
-10 18 -20 34 -30 37 -24 4 5 14 13 22 16 10 4 9 6 -6 6 -12 1 -33 10 -47 21
-29 23 -27 23 -50 6z"/>
<path d="M1600 630 c0 -5 5 -10 11 -10 5 0 7 5 4 10 -3 6 -8 10 -11 10 -2 0
-4 -4 -4 -10z"/>
<path d="M1853 632 c-28 -4 -30 -22 -3 -22 11 0 20 4 20 10 0 5 16 0 36 -12
28 -17 38 -18 47 -8 10 10 8 12 -5 7 -10 -3 -23 0 -30 6 -18 18 -39 24 -65 19z"/>
<path d="M615 607 c-11 -11 -15 -17 -9 -14 7 4 17 0 23 -7 14 -17 75 -40 66
-26 -4 6 2 10 12 10 13 1 9 5 -12 17 -16 8 -37 21 -45 28 -12 10 -19 9 -35 -8z
m35 -18 c0 -6 -4 -7 -10 -4 -5 3 -10 11 -10 16 0 6 5 7 10 4 6 -3 10 -11 10
-16z m35 -17 c-3 -3 -11 0 -18 7 -9 10 -8 11 6 5 10 -3 15 -9 12 -12z"/>
<path d="M2123 605 c-9 -20 -8 -25 2 -25 7 0 16 7 19 16 15 40 -3 47 -21 9z"/>
<path d="M2650 615 c7 -8 9 -22 6 -31 -4 -10 -1 -14 6 -12 7 3 13 16 13 31 2
21 -3 27 -18 27 -16 0 -17 -3 -7 -15z"/>
<path d="M2690 626 c0 -2 8 -10 18 -17 15 -13 16 -12 3 4 -13 16 -21 21 -21
13z"/>
<path d="M2807 617 c-4 -12 -1 -20 9 -24 13 -5 13 -8 2 -15 -10 -8 -10 -9 1
-6 8 2 15 14 16 26 1 11 -2 19 -6 16 -4 -2 -9 1 -11 8 -3 7 -7 5 -11 -5z"/>
<path d="M2360 610 c0 -5 5 -10 11 -10 5 0 7 5 4 10 -3 6 -8 10 -11 10 -2 0
-4 -4 -4 -10z"/>
<path d="M2485 610 c-3 -5 -1 -10 4 -10 6 0 11 5 11 10 0 6 -2 10 -4 10 -3 0
-8 -4 -11 -10z"/>
<path d="M2050 594 c0 -8 5 -12 10 -9 6 3 10 10 10 16 0 5 -4 9 -10 9 -5 0
-10 -7 -10 -16z"/>
<path d="M2180 595 c0 -8 7 -15 15 -15 7 0 18 -7 22 -15 6 -10 13 -11 23 -5
13 8 12 10 -2 10 -10 0 -22 9 -28 20 -13 24 -30 26 -30 5z"/>
<path d="M38 593 c7 -3 16 -2 19 1 4 3 -2 6 -13 5 -11 0 -14 -3 -6 -6z"/>
<path d="M1798 588 c-16 -5 -28 -14 -28 -20 0 -7 4 -7 13 0 13 11 17 12 42 12
8 0 15 5 15 10 0 12 -6 12 -42 -2z"/>
<path d="M1857 594 c-8 -9 64 -45 82 -42 12 2 11 7 -4 21 -9 10 -24 16 -31 13
-8 -3 -14 -1 -14 4 0 11 -23 13 -33 4z"/>
<path d="M2322 593 c-19 -7 -4 -23 24 -23 13 0 24 -4 24 -9 0 -14 -23 -19 -43
-9 -10 5 -24 5 -35 -1 -16 -9 -15 -10 3 -16 11 -4 28 -11 37 -16 10 -5 25 -9
35 -9 15 0 14 2 -3 15 -19 14 -19 14 1 16 11 1 27 1 35 0 12 -1 11 1 -2 12
-20 16 -25 32 -6 21 6 -4 8 -3 4 4 -3 6 -15 9 -26 7 -11 -2 -20 0 -20 6 0 10
-8 10 -28 2z"/>
<path d="M2694 577 c2 -9 1 -15 -3 -13 -4 3 -13 1 -21 -5 -11 -6 -12 -9 -2 -9
8 0 10 -5 6 -12 -6 -10 -4 -10 8 0 16 13 114 19 125 8 3 -3 -4 -6 -17 -6 -36
0 -13 -14 32 -19 3 -1 20 -13 37 -27 17 -14 31 -21 31 -15 0 6 -6 11 -12 11
-15 1 32 29 47 29 6 0 1 -6 -9 -14 -11 -8 -15 -15 -9 -15 7 0 15 5 18 10 4 7
13 6 26 -1 12 -6 23 -9 25 -6 3 3 -16 16 -41 31 -32 18 -45 21 -41 11 3 -9 -3
-19 -14 -25 -19 -10 -24 -6 -21 13 1 5 -2 6 -7 3 -5 -3 -24 8 -42 24 -19 17
-40 30 -47 30 -7 0 -13 4 -13 9 0 4 -14 8 -30 7 -24 -1 -30 -5 -26 -19z"/>
<path d="M2854 588 c3 -9 0 -19 -7 -22 -7 -2 -4 -5 6 -5 10 -1 16 -5 13 -9 -2
-4 0 -14 6 -22 8 -13 9 -12 5 2 -6 19 15 42 28 30 5 -4 5 -1 1 6 -5 7 -14 11
-22 8 -7 -3 -18 3 -24 12 -11 16 -11 16 -6 0z"/>
<path d="M0 569 c0 -11 4 -18 10 -14 5 3 7 12 3 20 -7 21 -13 19 -13 -6z"/>
<path d="M1345 580 c-3 -5 -13 -7 -23 -4 -14 5 -14 3 2 -10 11 -9 16 -17 10
-17 -5 -1 -16 -2 -24 -3 -8 0 -14 -7 -12 -13 1 -7 -4 -13 -11 -13 -7 0 -19 6
-26 13 -11 10 -14 10 -18 0 -3 -7 -16 -13 -29 -13 -15 0 -23 -4 -19 -10 8 -14
-46 -2 -60 13 -7 7 -4 8 9 3 16 -5 17 -4 7 8 -15 18 -37 11 -44 -15 -4 -15 0
-19 23 -19 16 0 32 -4 35 -10 3 -6 20 -2 42 10 26 14 41 16 54 10 10 -6 24 -8
32 -5 9 4 18 -7 27 -35 7 -22 19 -40 27 -40 18 0 16 17 -3 28 -15 8 -15 11 3
29 16 16 23 18 37 8 14 -11 14 -14 2 -24 -11 -9 -15 -9 -19 1 -2 7 -8 10 -12
6 -11 -10 4 -28 25 -28 10 0 21 7 24 16 4 9 9 15 11 12 3 -3 1 -16 -3 -29 -8
-20 -5 -27 20 -41 34 -21 42 -23 31 -5 -14 23 -13 48 3 54 12 4 13 7 3 14 -8
4 -10 11 -6 15 10 10 38 -16 30 -29 -4 -6 -1 -7 7 -2 12 7 10 -21 -7 -79 -3
-12 -1 -16 6 -12 6 4 11 0 11 -9 0 -11 -5 -15 -15 -11 -10 4 -15 -1 -15 -14 0
-25 -18 -26 -36 -2 -8 11 -7 0 4 -30 9 -26 23 -50 31 -53 23 -9 24 2 1 25 -12
12 -20 23 -18 24 2 1 16 7 31 14 33 14 44 38 29 63 -15 23 -15 49 -1 49 5 0 7
-4 4 -10 -3 -5 -1 -10 4 -10 6 0 11 -10 11 -22 0 -17 3 -19 9 -10 5 9 1 29
-10 52 -24 48 -24 53 -1 46 12 -4 19 -1 19 8 0 11 -6 12 -23 6 -19 -8 -24 -5
-34 23 -10 28 -13 30 -23 16 -11 -14 -16 -15 -36 -4 -14 7 -19 15 -13 19 6 3
13 2 17 -4 4 -6 11 -7 17 -4 18 12 98 13 92 2 -7 -11 13 -28 31 -28 6 1 1 7
-10 16 -11 8 -19 17 -18 19 8 15 -13 35 -36 34 l-26 -1 25 -8 c14 -4 18 -9 10
-10 -26 -4 -54 2 -68 13 -10 8 -12 7 -10 -2 2 -9 -11 -15 -36 -18 -24 -2 -45
-12 -53 -23 -16 -23 -47 -20 -52 6 -3 17 -2 17 15 4 11 -9 15 -10 10 -2 -4 6
-3 12 2 12 5 0 14 11 20 25 11 23 0 36 -13 15z m108 -101 c-3 -11 -10 -22 -15
-25 -5 -3 -4 -12 3 -20 9 -10 9 -14 0 -14 -18 0 -24 26 -12 49 10 17 7 21 -24
32 -21 8 -30 16 -23 20 6 4 26 0 43 -8 24 -11 31 -21 28 -34z m41 15 c3 -8 2
-12 -4 -9 -6 3 -10 10 -10 16 0 14 7 11 14 -7z"/>
<path d="M1385 580 c4 -6 10 -8 15 -5 4 3 10 0 12 -7 3 -8 7 -6 11 5 5 13 1
17 -19 17 -14 0 -23 -4 -19 -10z"/>
<path d="M1970 580 c8 -5 10 -10 3 -10 -6 0 -10 -8 -8 -17 1 -10 -2 -24 -8
-30 -6 -9 -6 -13 2 -13 10 0 12 5 11 25 -1 3 7 13 15 22 13 13 14 18 3 24 -7
5 -17 9 -23 9 -5 0 -3 -5 5 -10z"/>
<path d="M2090 577 c0 -12 -4 -16 -12 -11 -8 4 -10 3 -5 -2 5 -5 12 -8 15 -7
4 0 15 -3 26 -9 13 -7 16 -7 12 1 -12 18 1 12 29 -13 16 -15 33 -22 42 -19 11
4 14 2 9 -5 -4 -7 -1 -12 8 -12 9 0 16 5 16 10 0 6 -4 10 -10 10 -5 0 -10 6
-10 14 0 7 -8 20 -17 27 -15 11 -16 11 -5 -1 28 -32 3 -38 -30 -7 -11 10 -25
16 -31 14 -7 -2 -17 3 -24 12 -11 14 -12 14 -13 -2z"/>
<path d="M87 554 c-2 -12 0 -29 5 -36 7 -10 8 -8 4 5 -3 10 0 17 8 17 7 0 19
6 25 14 9 11 6 15 -13 18 -19 4 -25 0 -29 -18z"/>
<path d="M290 570 c0 -5 15 -10 33 -10 24 0 28 3 17 10 -20 13 -50 13 -50 0z"/>
<path d="M1810 556 c0 -7 7 -19 15 -26 13 -11 14 -10 9 4 -4 11 -1 16 11 16 9
0 13 5 10 10 -9 15 -45 12 -45 -4z"/>
<path d="M2018 563 c-21 -5 -12 -33 11 -33 10 0 26 -6 37 -14 11 -9 23 -11 29
-6 7 6 11 2 12 -10 1 -10 -5 -21 -13 -24 -8 -3 -14 -2 -14 3 0 5 -15 11 -32
15 -23 5 -29 9 -20 15 10 6 7 10 -12 13 -21 4 -24 3 -15 -8 9 -11 4 -14 -29
-14 -35 0 -40 3 -37 19 2 14 -4 20 -23 24 -25 5 -25 4 -7 -9 13 -10 15 -14 4
-14 -12 0 -12 -2 1 -10 12 -8 10 -10 -8 -10 -13 0 -21 -4 -17 -10 3 -5 13 -7
23 -4 15 5 15 4 -1 -6 -10 -6 -25 -9 -33 -6 -9 3 -12 2 -9 -5 4 -5 19 -7 35
-4 22 5 28 2 33 -14 6 -23 -8 -29 -16 -8 -3 6 -5 -1 -5 -18 0 -16 1 -25 4 -20
6 14 91 12 106 -3 7 -7 17 -12 24 -12 6 0 14 -7 18 -15 6 -17 32 -20 41 -5 3
5 0 20 -7 32 -11 20 -13 21 -16 5 -5 -23 -28 -16 -24 7 2 9 -2 16 -8 16 -5 0
-10 -5 -10 -10 0 -7 -6 -7 -20 0 -11 6 -31 8 -45 4 -19 -5 -25 -2 -25 11 0 9
4 14 9 11 5 -4 11 0 14 6 3 9 10 7 26 -7 17 -15 26 -17 39 -8 9 6 16 16 15 22
-4 17 4 13 28 -11 l21 -23 -6 22 c-7 21 -5 21 26 12 18 -6 41 -13 51 -16 19
-6 24 -43 4 -43 -7 0 -18 9 -25 20 -18 29 -32 24 -32 -11 0 -32 0 -32 45 -26
52 5 66 14 45 27 -8 5 -12 12 -9 15 11 10 38 -6 44 -26 7 -21 13 -23 35 -9 12
7 12 12 2 22 -9 9 -12 9 -12 -2 0 -9 -7 -6 -20 8 -12 12 -30 22 -40 22 -11 0
-20 5 -20 10 0 6 -11 10 -25 10 -14 0 -25 4 -25 9 0 9 43 7 59 -4 6 -3 11 -2
11 3 0 13 -27 23 -44 16 -11 -4 -13 0 -9 15 4 17 2 20 -12 15 -12 -5 -13 -9
-4 -14 8 -6 6 -11 -9 -19 -19 -10 -20 -9 -13 17 8 26 6 28 -23 30 -17 2 -38
11 -46 21 -8 9 -23 16 -32 14z m14 -88 c12 -16 9 -25 -7 -25 -8 0 -15 5 -15
11 0 7 -11 9 -29 6 -19 -4 -33 -1 -41 8 -11 13 -6 15 36 13 27 -2 52 -7 56
-13z m113 -65 c3 -5 1 -10 -4 -10 -6 0 -11 5 -11 10 0 6 2 10 4 10 3 0 8 -4
11 -10z"/>
<path d="M155 550 c3 -5 8 -10 11 -10 2 0 4 5 4 10 0 6 -5 10 -11 10 -5 0 -7
-4 -4 -10z"/>
<path d="M200 556 c0 -2 7 -9 15 -16 9 -7 15 -8 15 -2 0 5 -7 12 -15 16 -8 3
-15 4 -15 2z"/>
<path d="M1765 540 c3 -5 13 -10 21 -10 8 0 12 5 9 10 -3 6 -13 10 -21 10 -8
0 -12 -4 -9 -10z"/>
<path d="M2237 543 c-8 -12 30 -29 40 -19 4 3 -1 6 -9 6 -9 0 -18 5 -20 12 -3
9 -6 9 -11 1z"/>
<path d="M30 532 c0 -15 11 -21 27 -15 12 5 12 7 1 14 -17 11 -28 11 -28 1z"/>
<path d="M340 530 c-12 -8 -11 -10 8 -10 12 0 22 5 22 10 0 13 -11 13 -30 0z"/>
<path d="M2531 510 c-5 -16 -13 -30 -17 -30 -3 0 -4 6 -1 13 3 9 -12 12 -57
13 -40 1 -54 -1 -41 -6 11 -5 33 -9 49 -9 16 -1 38 -8 48 -18 17 -15 18 -15
18 1 0 9 4 15 9 11 6 -3 8 4 6 15 -2 11 0 20 6 20 5 0 9 5 9 10 0 21 -19 8
-29 -20z"/>
<path d="M2710 531 c-23 -7 -23 -8 -5 -13 11 -3 29 -9 40 -13 20 -8 20 -8 0 9
-17 15 -18 17 -2 12 11 -3 16 -2 12 4 -7 11 -9 11 -45 1z"/>
<path d="M132 518 c-18 -18 -15 -24 24 -64 35 -34 36 -35 30 -10 -4 15 -2 26
4 26 5 0 10 5 10 10 0 6 -3 9 -7 9 -20 -3 -26 2 -13 11 13 8 13 10 -2 10 -9 0
-18 -5 -20 -11 -2 -7 -10 -10 -17 -8 -11 4 -10 9 3 22 10 9 14 17 9 17 -5 0
-14 -5 -21 -12z"/>
<path d="M1046 522 c-3 -5 1 -9 9 -9 8 0 15 4 15 9 0 4 -4 8 -9 8 -6 0 -12 -4
-15 -8z"/>
<path d="M1859 517 c7 -7 14 -8 21 -1 6 6 2 10 -12 11 -16 2 -18 -1 -9 -10z"/>
<path d="M1512 508 c2 -6 11 -13 19 -16 12 -3 12 -2 0 6 -11 8 -11 10 0 15 10
4 8 6 -4 6 -10 1 -17 -4 -15 -11z"/>
<path d="M2992 500 c0 -14 2 -19 5 -12 2 6 2 18 0 25 -3 6 -5 1 -5 -13z"/>
<path d="M1835 500 c-3 -5 1 -10 10 -10 9 0 13 5 10 10 -3 6 -8 10 -10 10 -2
0 -7 -4 -10 -10z"/>
<path d="M2315 500 c3 -5 8 -10 11 -10 2 0 4 5 4 10 0 6 -5 10 -11 10 -5 0 -7
-4 -4 -10z"/>
<path d="M2819 492 c7 -12 17 -20 22 -16 6 3 9 7 7 8 -2 1 -12 8 -22 16 -18
14 -19 14 -7 -8z"/>
<path d="M64 489 c-3 -6 -15 -9 -25 -6 -10 3 -24 -1 -30 -9 -9 -12 -9 -13 3
-9 12 5 16 -1 16 -21 0 -26 -1 -27 -14 -9 -8 10 -14 14 -14 8 0 -6 7 -16 15
-23 8 -7 12 -16 9 -21 -3 -5 0 -8 7 -7 6 2 13 -2 16 -9 3 -7 -3 -9 -16 -6 -12
3 -21 10 -21 16 0 6 -3 7 -6 4 -12 -11 18 -37 42 -37 16 0 24 -7 27 -22 4 -21
4 -20 6 3 1 25 31 51 31 27 0 -6 11 -8 30 -5 22 5 33 2 43 -14 14 -20 14 -20
20 1 3 11 2 20 -1 21 -45 5 -68 12 -74 22 -5 8 -11 7 -22 -2 -9 -8 -16 -10
-16 -6 0 4 -8 1 -17 -6 -9 -8 -14 -9 -10 -2 4 6 2 13 -5 15 -6 2 -13 20 -14
39 -2 31 0 34 24 36 15 0 30 -4 34 -10 5 -7 8 -3 8 11 0 19 -4 22 -21 17 -15
-5 -19 -4 -15 4 4 6 5 11 2 11 -3 0 -8 -5 -12 -11z"/>
<path d="M975 490 c-3 -6 1 -7 9 -4 18 7 21 14 7 14 -6 0 -13 -4 -16 -10z"/>
<path d="M1224 492 c4 -3 14 -7 22 -8 9 -1 13 0 10 4 -4 3 -14 7 -22 8 -9 1
-13 0 -10 -4z"/>
<path d="M1720 496 c0 -2 7 -6 15 -10 8 -3 15 -1 15 4 0 6 -7 10 -15 10 -8 0
-15 -2 -15 -4z"/>
<path d="M2233 493 c-14 -5 -18 -33 -5 -32 4 0 15 4 25 8 16 6 16 9 5 18 -7 6
-19 8 -25 6z"/>
<path d="M2780 479 c5 -9 24 -22 42 -29 l33 -12 -25 -8 -25 -7 28 -12 c35 -14
54 -14 62 -1 3 5 0 7 -8 4 -16 -6 -31 22 -16 31 17 11 -2 25 -26 19 -23 -6
-61 17 -50 28 3 3 -2 5 -9 5 -11 0 -12 -5 -6 -18z"/>
<path d="M1027 464 c-3 -20 0 -22 27 -22 17 1 25 3 19 5 -7 3 -13 9 -13 14 0
6 5 7 10 4 6 -3 10 -2 10 4 0 6 7 7 17 4 10 -4 14 -2 10 4 -4 6 -22 11 -41 10
-27 -1 -35 -6 -39 -23z"/>
<path d="M1570 473 c0 -9 3 -14 6 -10 11 11 63 -15 69 -34 4 -11 10 -17 15
-14 15 9 0 34 -35 55 -39 24 -55 25 -55 3z"/>
<path d="M2915 480 c-18 -7 -18 -9 9 -19 33 -13 46 -7 25 13 -9 9 -21 11 -34
6z"/>
<path d="M847 473 c-10 -9 -9 -23 1 -23 5 0 9 7 9 15 0 17 -1 18 -10 8z"/>
<path d="M1129 471 c-1 -3 -1 -9 0 -13 0 -4 -6 -5 -14 -2 -8 4 -15 1 -15 -5 0
-6 13 -11 28 -11 20 0 28 5 29 18 1 16 -25 28 -28 13z"/>
<path d="M1183 473 c-21 -8 -15 -22 7 -16 11 3 20 9 20 14 0 10 -8 10 -27 2z"/>
<path d="M1286 453 c18 -28 18 -28 -2 -10 -32 27 -35 9 -4 -25 22 -23 34 -29
52 -25 17 5 28 1 38 -13 7 -10 17 -17 22 -14 4 3 5 -2 2 -10 -3 -9 -2 -16 4
-16 16 0 25 52 10 61 -7 5 -14 4 -16 -1 -2 -6 -12 -4 -24 4 -11 8 -31 12 -44
10 -22 -4 -24 -2 -18 20 4 18 1 27 -16 36 -21 11 -21 11 -4 -17z"/>
<path d="M2970 470 c0 -5 5 -10 11 -10 5 0 7 5 4 10 -3 6 -8 10 -11 10 -2 0
-4 -4 -4 -10z"/>
<path d="M280 462 c0 -6 10 -16 21 -23 16 -8 18 -13 9 -19 -10 -6 -8 -11 9
-21 11 -8 21 -19 21 -26 0 -7 5 -13 10 -13 6 0 10 -8 10 -19 0 -28 49 -35 76
-10 11 10 27 19 35 19 8 0 1 7 -15 15 -33 18 -56 19 -56 4 0 -5 5 -7 11 -3 16
9 30 -18 18 -33 -10 -12 -45 16 -87 69 -11 14 -11 16 7 11 12 -3 19 -9 16 -13
-2 -4 9 -7 25 -8 17 0 30 1 30 3 0 2 -21 10 -47 19 -26 9 -57 26 -70 38 -13
12 -23 16 -23 10z"/>
<path d="M780 449 c0 -11 5 -17 10 -14 6 3 10 0 10 -7 0 -9 3 -9 10 2 9 13 14
7 11 -12 0 -5 5 -8 12 -9 6 0 23 -2 37 -3 14 -2 28 2 32 8 5 8 8 7 8 -2 0 -18
29 -46 38 -37 4 3 -1 11 -11 16 -9 6 -15 15 -12 20 4 5 11 7 16 4 5 -4 9 -4 9
0 0 12 -45 22 -57 13 -9 -7 -17 -7 -26 1 -8 6 -17 8 -21 4 -4 -4 -10 -3 -14 2
-4 6 -17 16 -29 23 -21 11 -23 10 -23 -9z"/>
<path d="M914 455 c6 -7 21 -17 34 -24 17 -9 22 -9 23 1 0 7 4 4 9 -7 8 -19 9
-19 9 3 1 19 -3 22 -21 17 -16 -6 -20 -4 -15 7 4 11 -3 15 -23 15 -22 0 -25
-3 -16 -12z"/>
<path d="M980 466 c0 -2 7 -7 16 -10 8 -3 12 -2 9 4 -6 10 -25 14 -25 6z"/>
<path d="M208 448 c8 -8 9 -15 1 -25 -8 -9 -8 -13 -1 -13 6 0 13 4 16 9 8 13
-4 41 -17 41 -8 0 -7 -4 1 -12z"/>
<path d="M870 449 c0 -5 5 -7 10 -4 6 3 10 8 10 11 0 2 -4 4 -10 4 -5 0 -10
-5 -10 -11z"/>
<path d="M60 432 c0 -22 3 -23 46 -19 32 3 47 0 51 -10 3 -7 12 -13 21 -13 10
0 4 9 -17 24 -21 16 -28 26 -19 29 8 3 8 6 2 6 -6 1 -17 -6 -24 -14 -11 -13
-14 -13 -26 2 -11 15 -13 15 -14 3 0 -13 -1 -13 -10 0 -8 12 -10 10 -10 -8z"/>
<path d="M1467 435 c3 -8 9 -12 14 -9 12 7 11 11 -5 17 -10 4 -13 1 -9 -8z"/>
<path d="M1563 443 c-13 -5 -6 -33 9 -33 5 0 6 5 3 10 -4 7 2 9 18 5 15 -4 28
-2 32 6 5 8 4 10 -3 5 -6 -4 -20 -3 -29 2 -10 5 -23 7 -30 5z"/>
<path d="M1891 434 c0 -11 3 -14 6 -6 3 7 2 16 -1 19 -3 4 -6 -2 -5 -13z"/>
<path d="M2765 440 c3 -5 1 -19 -5 -30 -10 -18 1 -54 21 -70 4 -3 8 -12 10
-20 3 -13 8 -14 27 -4 l24 12 -31 13 c-17 8 -31 21 -30 29 0 10 2 11 6 3 2 -7
12 -13 21 -13 15 1 15 2 -2 15 -10 8 -20 24 -21 37 -4 37 -4 38 -16 38 -5 0
-7 -4 -4 -10z m15 -50 c0 -5 -5 -10 -11 -10 -5 0 -7 5 -4 10 3 6 8 10 11 10 2
0 4 -4 4 -10z"/>
<path d="M1156 433 c-14 -4 -16 -7 -6 -13 11 -7 11 -11 1 -24 -11 -12 -9 -15
8 -13 15 1 19 8 18 29 -1 15 -2 27 -2 27 0 -1 -9 -4 -19 -6z"/>
<path d="M1224 432 c3 -6 -3 -13 -14 -17 -26 -8 -17 -25 10 -18 22 6 27 28 8
39 -6 4 -8 3 -4 -4z"/>
<path d="M2956 426 c8 -20 34 -29 34 -12 0 8 -7 17 -16 20 -22 9 -24 8 -18 -8z"/>
<path d="M430 410 c0 -11 4 -20 9 -20 5 0 7 9 4 20 -3 11 -7 20 -9 20 -2 0 -4
-9 -4 -20z"/>
<path d="M1710 418 c0 -5 -3 -7 -7 -5 -5 3 -14 -1 -21 -9 -11 -12 -9 -14 8
-14 11 0 20 5 20 11 0 6 9 8 20 4 11 -3 20 -2 20 3 0 5 -9 12 -20 15 -11 3
-20 1 -20 -5z"/>
<path d="M1770 405 c0 -8 4 -15 10 -15 5 0 7 7 4 15 -4 8 -8 15 -10 15 -2 0
-4 -7 -4 -15z"/>
<path d="M1800 410 c8 -5 20 -10 25 -10 6 0 3 5 -5 10 -8 5 -19 10 -25 10 -5
0 -3 -5 5 -10z"/>
<path d="M1840 410 c0 -5 5 -10 11 -10 5 0 7 5 4 10 -3 6 -8 10 -11 10 -2 0
-4 -4 -4 -10z"/>
<path d="M2340 411 c0 -5 6 -12 13 -14 7 -3 6 -6 -5 -6 -9 -1 -20 4 -23 9 -9
14 -25 12 -22 -2 4 -22 60 -29 75 -10 10 14 10 18 -5 24 -25 10 -33 9 -33 -1z"/>
<path d="M1620 400 c0 -5 7 -10 16 -10 8 0 12 5 9 10 -3 6 -10 10 -16 10 -5 0
-9 -4 -9 -10z"/>
<path d="M789 381 c-13 -11 -19 -20 -14 -20 14 0 50 28 43 34 -3 3 -16 -3 -29
-14z"/>
<path d="M1010 390 c0 -5 5 -10 10 -10 6 0 10 5 10 10 0 6 -4 10 -10 10 -5 0
-10 -4 -10 -10z"/>
<path d="M1101 393 c3 -19 -15 -53 -27 -53 -8 0 -14 -4 -14 -10 0 -5 3 -9 8
-9 20 3 29 -3 28 -22 -1 -18 6 -21 47 -25 35 -2 47 0 44 9 -2 6 -14 11 -26 10
-11 -2 -21 2 -21 8 0 5 4 8 9 4 5 -3 12 -1 16 5 3 5 -3 10 -14 10 -12 0 -21
-4 -21 -10 0 -5 -6 -10 -12 -10 -17 0 -17 72 0 78 17 5 15 22 -3 22 -8 0 -15
-3 -14 -7z"/>
<path d="M1580 385 c7 -8 17 -15 22 -15 5 0 22 -13 38 -29 l29 -28 -22 -11
c-18 -9 -19 -11 -4 -11 21 -1 23 -17 2 -25 -8 -3 -15 -15 -15 -28 0 -17 3 -19
12 -10 23 23 40 14 34 -18 -4 -30 7 -49 19 -30 3 5 15 10 26 10 10 0 19 5 19
11 0 5 6 7 13 3 8 -6 8 -3 -2 9 -10 13 -18 14 -32 6 -15 -7 -19 -6 -19 5 0 8
6 17 13 19 6 3 2 6 -11 6 -29 1 -40 28 -17 45 23 16 12 56 -16 56 -11 0 -22 7
-25 15 -4 8 -15 15 -25 15 -10 0 -19 5 -19 10 0 6 -7 10 -16 10 -14 0 -14 -3
-4 -15z"/>
<path d="M1872 391 c-16 -10 -12 -43 6 -49 8 -2 12 7 12 27 0 34 0 34 -18 22z"/>
<path d="M1950 384 c30 -16 60 -18 60 -4 0 11 0 11 -50 15 -34 3 -34 3 -10
-11z"/>
<path d="M2893 381 c-13 -11 -18 -23 -14 -30 6 -10 12 -9 24 3 8 9 21 16 27
16 13 0 9 22 -6 27 -5 1 -19 -6 -31 -16z"/>
<path d="M840 375 c-6 -7 -19 -11 -28 -8 -16 5 -16 5 -1 -12 16 -16 18 -16 38
4 11 11 16 23 12 26 -5 2 -14 -2 -21 -10z"/>
<path d="M955 363 c-6 -26 0 -43 16 -43 6 0 7 9 4 20 -7 24 7 26 25 5 13 -16
40 -21 40 -7 0 15 -16 27 -47 38 -29 11 -32 10 -38 -13z"/>
<path d="M1797 383 c-8 -8 23 -32 42 -33 11 0 10 5 -4 20 -19 21 -28 24 -38
13z"/>
<path d="M1904 379 c-8 -14 11 -33 25 -25 6 4 11 11 11 16 0 13 -29 20 -36 9z"/>
<path d="M2971 376 c-14 -17 -7 -36 15 -36 15 0 18 18 5 38 -6 10 -10 10 -20
-2z"/>
<path d="M1236 372 c-3 -5 6 -12 20 -15 15 -3 23 0 21 7 -5 14 -33 20 -41 8z"/>
<path d="M1440 371 c0 -5 5 -13 10 -16 6 -3 10 -2 10 4 0 5 -4 13 -10 16 -5 3
-10 2 -10 -4z"/>
<path d="M1730 365 c-13 -16 -8 -18 27 -9 13 4 20 10 17 15 -8 14 -30 11 -44
-6z"/>
<path d="M2490 370 c0 -5 5 -10 10 -10 6 0 10 5 10 10 0 6 -4 10 -10 10 -5 0
-10 -4 -10 -10z"/>
<path d="M883 362 c-8 -5 -9 -13 -3 -22 11 -17 23 -8 18 14 -2 9 -8 12 -15 8z"/>
<path d="M1040 359 c0 -5 5 -7 10 -4 6 3 10 8 10 11 0 2 -4 4 -10 4 -5 0 -10
-5 -10 -11z"/>
<path d="M1181 356 c-16 -19 -11 -29 8 -17 7 5 12 14 9 21 -3 9 -8 7 -17 -4z"/>
<path d="M151 347 c-8 -10 -7 -14 4 -14 8 0 15 6 15 14 0 7 -2 13 -4 13 -2 0
-9 -6 -15 -13z"/>
<path d="M1337 339 c-4 -15 -11 -20 -22 -15 -9 3 -13 2 -10 -4 3 -6 -3 -10
-14 -10 -12 0 -21 6 -21 14 0 10 -9 13 -27 11 -16 -2 -34 -4 -40 -4 -7 -1 -13
-6 -13 -11 0 -6 10 -8 23 -5 15 4 28 1 36 -9 7 -8 18 -13 25 -10 16 6 28 -20
20 -41 -5 -12 -9 -13 -20 -4 -12 10 -13 9 -8 -5 7 -18 34 -22 34 -5 0 8 13 9
40 5 27 -4 40 -3 40 5 0 6 -6 9 -13 6 -7 -2 -23 3 -35 13 -18 15 -19 20 -8 29
15 13 46 5 46 -13 0 -6 5 -4 10 4 7 12 12 12 22 2 14 -14 38 -16 38 -2 0 6 -7
10 -15 10 -9 0 -18 7 -21 15 -5 11 -10 13 -19 5 -15 -12 -41 13 -30 30 3 5 2
10 -3 10 -5 0 -12 -10 -15 -21z"/>
<path d="M22 329 c1 -13 8 -23 13 -21 15 3 12 35 -3 40 -9 3 -13 -3 -10 -19z"/>
<path d="M100 340 c8 -5 20 -10 25 -10 6 0 3 5 -5 10 -8 5 -19 10 -25 10 -5 0
-3 -5 5 -10z"/>
<path d="M570 335 c0 -8 6 -15 14 -15 19 0 48 -29 41 -41 -6 -9 15 -13 43 -10
8 1 23 -6 33 -15 11 -10 39 -19 64 -20 46 -3 54 3 33 24 -15 15 -48 16 -48 2
0 -5 -7 -10 -15 -10 -8 0 -14 5 -12 11 2 11 -17 19 -60 23 -33 4 -41 16 -15
23 29 7 29 25 0 22 -13 -2 -33 2 -45 9 -28 16 -33 15 -33 -3z"/>
<path d="M1563 342 c-17 -5 -20 -11 -13 -22 17 -27 12 -49 -10 -43 -22 6 -28
-12 -7 -20 21 -8 47 18 47 47 0 14 5 26 10 26 6 0 10 5 10 10 0 11 -4 11 -37
2z"/>
<path d="M2350 340 c-12 -7 -10 -11 10 -18 29 -11 35 -9 27 13 -7 17 -16 19
-37 5z"/>
<path d="M460 323 c0 -7 7 -13 15 -13 8 0 15 6 15 13 0 8 -7 14 -15 14 -8 0
-15 -6 -15 -14z"/>
<path d="M750 328 c0 -9 -6 -19 -12 -21 -7 -3 -4 -6 8 -6 11 -1 25 -6 31 -12
7 -7 12 -6 16 5 4 9 1 16 -5 16 -6 0 -17 8 -24 18 -12 15 -13 15 -14 0z"/>
<path d="M806 322 c12 -38 28 -62 41 -62 7 0 13 5 13 10 0 6 -4 10 -10 10 -5
0 -12 11 -16 24 -3 14 -12 27 -19 30 -10 3 -12 -1 -9 -12z"/>
<path d="M1743 333 c-18 -6 -16 -33 1 -33 21 0 46 11 46 20 0 10 -31 18 -47
13z"/>
<path d="M1835 330 c3 -5 8 -10 11 -10 2 0 4 5 4 10 0 6 -5 10 -11 10 -5 0 -7
-4 -4 -10z"/>
<path d="M2545 330 c3 -5 8 -10 11 -10 2 0 4 5 4 10 0 6 -5 10 -11 10 -5 0 -7
-4 -4 -10z"/>
<path d="M231 317 c-13 -16 -5 -27 21 -27 11 0 18 7 18 20 0 23 -22 27 -39 7z"/>
<path d="M916 313 c-7 -17 9 -33 34 -33 13 1 13 2 -1 13 -9 7 -14 18 -12 25 7
18 -14 14 -21 -5z"/>
<path d="M2859 316 c13 -16 59 -27 66 -16 3 5 -9 13 -27 19 -42 15 -53 14 -39
-3z"/>
<path d="M95 310 c-3 -5 -12 -7 -20 -3 -10 3 -15 -1 -15 -13 0 -14 2 -16 9 -6
6 10 10 9 14 -7 6 -26 34 -27 42 -2 4 13 12 17 25 14 11 -3 20 -9 20 -13 0 -4
13 -10 29 -13 16 -4 32 -14 35 -24 3 -11 4 -8 3 7 -1 18 -9 26 -25 28 -15 2
-22 9 -18 17 6 18 -5 27 -19 15 -7 -6 -23 -6 -43 -1 -18 6 -34 6 -37 1z m20
-20 c-3 -5 -11 -10 -16 -10 -6 0 -7 5 -4 10 3 6 11 10 16 10 6 0 7 -4 4 -10z"/>
<path d="M290 301 c0 -13 8 -16 42 -13 35 4 40 2 35 -12 -7 -18 1 -20 22 -7
17 11 -3 23 -61 39 -33 9 -38 8 -38 -7z"/>
<path d="M535 310 c-3 -5 -1 -11 5 -15 6 -4 8 -10 5 -15 -3 -5 -1 -11 5 -15 5
-3 10 -2 10 4 0 5 10 11 23 13 20 3 19 5 -10 20 -18 9 -35 13 -38 8z"/>
<path d="M690 305 c0 -9 5 -15 11 -13 6 2 11 8 11 13 0 5 -5 11 -11 13 -6 2
-11 -4 -11 -13z"/>
<path d="M855 310 c-3 -5 -2 -10 4 -10 5 0 13 5 16 10 3 6 2 10 -4 10 -5 0
-13 -4 -16 -10z"/>
<path d="M989 302 c-7 -9 -9 -14 -5 -10 5 4 15 3 23 -3 10 -9 13 -8 13 4 0 24
-16 29 -31 9z"/>
<path d="M1955 307 c-4 -10 -5 -21 -1 -24 10 -10 18 4 13 24 -4 17 -4 17 -12
0z"/>
<path d="M2940 311 c0 -5 8 -11 18 -13 11 -3 19 0 19 8 0 8 -9 14 -19 14 -10
0 -18 -4 -18 -9z"/>
<path d="M0 299 c0 -5 5 -7 10 -4 5 3 10 8 10 11 0 2 -4 4 -10 4 -5 0 -10 -5
-10 -11z"/>
<path d="M1215 300 c-3 -5 -1 -10 4 -10 6 0 11 5 11 10 0 6 -2 10 -4 10 -3 0
-8 -4 -11 -10z"/>
<path d="M2420 297 c0 -20 33 -47 56 -47 11 0 25 -5 32 -12 7 -7 12 -8 12 -2
0 5 -15 18 -32 29 -18 10 -37 24 -41 32 -10 17 -27 17 -27 0z"/>
<path d="M2515 301 c-3 -6 3 -15 12 -21 17 -11 17 -11 1 -6 -10 3 -18 2 -18
-3 0 -5 16 -11 36 -13 39 -5 60 16 43 43 -7 12 -10 12 -18 0 -6 -9 -11 -10
-15 -2 -9 13 -33 14 -41 2z"/>
<path d="M440 290 c0 -5 5 -10 10 -10 6 0 10 -6 10 -13 0 -7 9 -18 21 -25 11
-7 18 -19 15 -27 -3 -8 -1 -17 4 -20 21 -13 14 23 -12 62 -28 41 -48 55 -48
33z"/>
<path d="M874 288 c-4 -6 4 -21 19 -34 17 -15 22 -24 14 -27 -7 -3 -7 -6 -1
-6 5 -1 19 6 30 14 15 12 16 14 3 15 -9 0 -21 11 -27 25 -12 27 -27 32 -38 13z"/>
<path d="M2264 273 c-27 -26 -34 -28 -105 -25 -61 2 -78 -1 -83 -13 -3 -8 -17
-20 -31 -25 -30 -11 -35 -41 -5 -33 10 3 18 10 17 16 -1 5 18 16 43 24 35 10
51 11 73 2 20 -9 34 -9 51 -1 18 8 27 7 40 -6 15 -16 16 -14 10 16 -6 30 -5
32 20 32 29 0 34 11 12 29 -10 8 -20 5 -42 -16z"/>
<path d="M25 280 c-4 -6 -2 -17 4 -23 15 -15 25 -2 13 19 -7 12 -11 13 -17 4z"/>
<path d="M2860 276 c0 -9 5 -16 10 -16 6 0 10 4 10 9 0 6 -4 13 -10 16 -5 3
-10 -1 -10 -9z"/>
<path d="M265 270 c-3 -5 -1 -10 4 -10 6 0 11 5 11 10 0 6 -2 10 -4 10 -3 0
-8 -4 -11 -10z"/>
<path d="M505 270 c-3 -5 1 -13 10 -16 22 -9 29 1 11 15 -10 8 -16 9 -21 1z"/>
<path d="M1855 270 c-9 -15 3 -29 25 -27 18 1 18 2 3 19 -19 21 -20 21 -28 8z"/>
<path d="M2355 272 c-27 -5 -39 -18 -30 -32 5 -8 11 -6 22 7 8 10 12 12 8 6
-4 -8 0 -13 10 -13 9 0 14 4 10 9 -3 5 3 11 12 13 15 3 15 5 3 9 -8 3 -24 3
-35 1z"/>
<path d="M140 260 c0 -6 -7 -10 -15 -10 -8 0 -15 -4 -15 -8 0 -4 18 -8 40 -9
46 -2 52 8 15 25 -15 7 -25 8 -25 2z"/>
<path d="M320 261 c0 -15 19 -35 43 -44 11 -4 17 -2 17 8 0 8 -5 15 -12 15 -6
0 -20 7 -30 17 -12 11 -18 12 -18 4z"/>
<path d="M1002 254 c2 -12 13 -20 31 -22 30 -4 37 12 10 22 -10 3 -24 9 -31
12 -10 4 -13 0 -10 -12z"/>
<path d="M1205 260 c-4 -6 -11 -7 -17 -4 -7 4 -8 2 -4 -4 4 -7 2 -12 -3 -12
-6 0 -11 -5 -11 -10 0 -13 38 10 44 27 6 15 0 17 -9 3z"/>
<path d="M1417 241 c3 -12 11 -17 19 -14 19 7 18 19 -2 27 -22 9 -23 8 -17
-13z"/>
<path d="M77 211 c13 -34 18 -38 37 -32 14 6 26 3 36 -8 20 -21 41 -25 34 -6
-4 8 -12 15 -18 15 -7 0 -18 6 -24 12 -7 7 -20 13 -30 13 -10 0 -18 9 -20 23
-2 12 -9 22 -17 22 -11 0 -11 -7 2 -39z"/>
<path d="M276 235 c4 -8 10 -12 15 -9 14 8 10 24 -6 24 -9 0 -12 -6 -9 -15z"/>
<path d="M410 245 c0 -12 29 -35 44 -35 21 0 20 16 -1 24 -10 3 -24 9 -30 12
-7 3 -13 3 -13 -1z"/>
<path d="M610 232 c0 -25 16 -37 23 -18 3 8 -1 20 -9 26 -11 10 -14 9 -14 -8z"/>
<path d="M1106 234 c-5 -14 -4 -15 9 -4 17 14 19 20 6 20 -5 0 -12 -7 -15 -16z"/>
<path d="M2802 235 c4 -28 58 -60 58 -35 0 6 -6 10 -14 10 -8 0 -22 10 -31 23
-15 20 -16 20 -13 2z"/>
<path d="M0 224 c0 -8 5 -12 10 -9 6 3 10 10 10 16 0 5 -4 9 -10 9 -5 0 -10
-7 -10 -16z"/>
<path d="M557 234 c-3 -4 -2 -16 4 -26 8 -15 14 -17 22 -9 8 8 7 15 -4 26 -8
9 -18 13 -22 9z"/>
<path d="M660 233 c0 -5 16 -21 36 -37 28 -22 34 -24 25 -9 -5 11 -7 23 -3 27
3 4 -1 4 -10 1 -9 -4 -18 0 -21 9 -6 16 -27 22 -27 9z"/>
<path d="M960 232 c0 -5 7 -13 16 -16 10 -4 14 -1 12 6 -5 15 -28 23 -28 10z"/>
<path d="M1768 223 c12 -8 22 -24 22 -34 0 -11 7 -19 15 -19 8 0 15 5 15 11 0
14 -51 59 -65 58 -5 0 0 -7 13 -16z"/>
<path d="M1837 229 c-22 -13 -22 -29 -1 -29 14 0 14 -3 4 -15 -15 -18 1 -20
18 -3 13 13 16 44 4 52 -4 2 -15 0 -25 -5z"/>
<path d="M1910 232 c0 -5 3 -12 8 -16 4 -4 7 -13 7 -18 0 -6 12 -13 28 -15 31
-4 35 4 10 24 -30 23 -53 34 -53 25z"/>
<path d="M2410 230 c0 -5 7 -10 15 -10 8 0 15 5 15 10 0 6 -7 10 -15 10 -8 0
-15 -4 -15 -10z"/>
<path d="M2955 230 c-3 -5 1 -10 10 -10 9 0 13 5 10 10 -3 6 -8 10 -10 10 -2
0 -7 -4 -10 -10z"/>
<path d="M840 220 c0 -5 7 -10 16 -10 8 0 12 5 9 10 -3 6 -10 10 -16 10 -5 0
-9 -4 -9 -10z"/>
<path d="M1210 220 c0 -5 5 -10 11 -10 5 0 7 5 4 10 -3 6 -8 10 -11 10 -2 0
-4 -4 -4 -10z"/>
<path d="M1520 214 c-19 -10 -26 -10 -33 -1 -6 8 -7 6 -3 -5 3 -10 1 -18 -4
-18 -18 0 -10 -19 11 -25 25 -8 39 3 19 15 -11 7 -9 10 12 10 15 0 29 4 33 10
3 5 13 7 23 4 14 -5 14 -3 -2 10 -23 18 -23 18 -56 0z"/>
<path d="M170 205 c0 -12 6 -15 21 -10 15 5 25 1 36 -15 10 -14 19 -18 25 -12
14 14 -21 46 -55 50 -19 2 -27 -2 -27 -13z"/>
<path d="M1896 207 c3 -10 9 -15 12 -12 3 3 0 11 -7 18 -10 9 -11 8 -5 -6z"/>
<path d="M2620 209 c0 -6 14 -15 30 -20 17 -6 30 -17 30 -25 0 -8 9 -14 20
-14 13 0 20 -7 20 -20 0 -11 4 -20 9 -20 5 0 7 15 6 33 -2 17 2 38 7 45 8 9 6
12 -6 12 -9 0 -16 -4 -16 -9 0 -5 -22 -1 -50 9 -27 10 -50 14 -50 9z"/>
<path d="M310 200 c0 -6 7 -10 15 -10 8 0 15 2 15 4 0 2 -7 6 -15 10 -8 3 -15
1 -15 -4z"/>
<path d="M1002 190 c-6 -16 -6 -26 0 -29 16 -6 26 13 18 34 -7 19 -8 19 -18
-5z"/>
<path d="M1150 200 c0 -5 5 -10 10 -10 6 0 10 5 10 10 0 6 -4 10 -10 10 -5 0
-10 -4 -10 -10z"/>
<path d="M2345 200 c-5 -8 -2 -18 10 -27 24 -17 44 -17 23 0 -9 6 -18 19 -20
27 -4 11 -6 12 -13 0z"/>
<path d="M377 194 c8 -4 11 -15 7 -31 l-7 -25 33 17 c35 18 31 26 -20 39 -14
3 -19 3 -13 0z"/>
<path d="M844 175 c33 -36 60 -33 37 4 -5 8 -21 16 -35 18 l-26 4 24 -26z"/>
<path d="M1092 187 c-7 -8 -6 -17 2 -30 18 -24 26 -21 26 7 0 29 -14 41 -28
23z"/>
<path d="M1230 192 c0 -5 6 -16 13 -26 13 -18 14 -18 21 -1 3 10 4 20 1 23 -3
3 -5 0 -5 -7 0 -7 -5 -9 -10 -6 -6 4 -8 11 -5 16 4 5 1 9 -4 9 -6 0 -11 -4
-11 -8z"/>
<path d="M1295 190 c3 -5 8 -10 11 -10 2 0 4 5 4 10 0 6 -5 10 -11 10 -5 0 -7
-4 -4 -10z"/>
<path d="M1420 184 c0 -16 -2 -17 -11 -4 -9 12 -10 12 -5 -3 3 -11 9 -29 12
-41 3 -12 13 -22 23 -23 14 -1 17 4 14 17 -3 11 -11 16 -19 13 -8 -3 -14 0
-14 5 0 6 6 12 14 14 13 3 13 6 0 22 -14 20 -14 20 -14 0z"/>
<path d="M2096 185 c4 -8 10 -12 15 -9 11 6 2 24 -11 24 -5 0 -7 -7 -4 -15z"/>
<path d="M2380 196 c0 -2 9 -6 20 -9 11 -3 20 -1 20 4 0 5 -9 9 -20 9 -11 0
-20 -2 -20 -4z"/>
<path d="M2583 186 c3 -15 19 -26 29 -20 14 9 9 22 -12 27 -11 3 -18 0 -17 -7z"/>
<path d="M640 179 c0 -5 5 -7 10 -4 6 3 10 8 10 11 0 2 -4 4 -10 4 -5 0 -10
-5 -10 -11z"/>
<path d="M2190 184 c0 -15 33 -39 58 -42 12 -2 22 2 22 7 0 6 -10 11 -22 11
-12 0 -30 7 -40 17 -10 9 -18 12 -18 7z"/>
<path d="M42 169 c2 -6 8 -10 13 -10 5 0 11 4 13 10 2 6 -4 11 -13 11 -9 0
-15 -5 -13 -11z"/>
<path d="M744 172 c3 -6 0 -12 -6 -15 -20 -7 -5 -17 30 -21 20 -2 36 2 44 12
11 13 11 14 -1 8 -7 -5 -16 -4 -20 1 -8 14 -56 28 -47 15z"/>
<path d="M1320 169 c0 -5 5 -7 10 -4 6 3 10 8 10 11 0 2 -4 4 -10 4 -5 0 -10
-5 -10 -11z"/>
<path d="M1565 160 c-17 -19 -17 -20 -1 -20 10 0 14 -5 10 -11 -5 -9 1 -10 20
-5 17 4 34 2 42 -5 16 -13 27 -7 30 17 2 9 -5 14 -19 13 -12 -1 -31 -1 -42 0
-20 2 -20 2 -1 16 20 15 20 15 -1 15 -11 0 -28 -9 -38 -20z"/>
<path d="M2505 170 c-30 -6 -30 -6 -5 -13 13 -3 29 -2 34 3 14 14 5 17 -29 10z"/>
<path d="M250 155 c-7 -8 -8 -15 -3 -15 6 0 22 -12 37 -26 23 -24 26 -24 26
-8 -1 58 -31 83 -60 49z"/>
<path d="M445 139 c-7 -30 3 -56 12 -31 3 6 12 12 21 13 11 0 12 2 5 6 -7 2
-13 11 -13 18 0 28 -19 24 -25 -6z"/>
<path d="M520 161 c0 -5 5 -13 10 -16 6 -3 10 -2 10 4 0 5 -4 13 -10 16 -5 3
-10 2 -10 -4z"/>
<path d="M620 160 c0 -5 5 -10 11 -10 5 0 7 5 4 10 -3 6 -8 10 -11 10 -2 0 -4
-4 -4 -10z"/>
<path d="M685 160 c3 -5 8 -10 11 -10 2 0 4 5 4 10 0 6 -5 10 -11 10 -5 0 -7
-4 -4 -10z"/>
<path d="M2435 160 c3 -5 8 -10 11 -10 2 0 4 5 4 10 0 6 -5 10 -11 10 -5 0 -7
-4 -4 -10z"/>
<path d="M2075 150 c3 -5 8 -10 11 -10 2 0 4 5 4 10 0 6 -5 10 -11 10 -5 0 -7
-4 -4 -10z"/>
<path d="M2400 150 c0 -5 5 -10 10 -10 6 0 10 5 10 10 0 6 -4 10 -10 10 -5 0
-10 -4 -10 -10z"/>
<path d="M96 135 c4 -8 12 -15 20 -15 19 0 18 16 -2 24 -22 9 -24 8 -18 -9z"/>
<path d="M940 143 c0 -5 5 -14 12 -21 9 -9 8 -12 -4 -12 -9 0 -18 7 -22 15 -3
8 -10 15 -15 15 -12 0 -2 -32 12 -42 6 -3 20 -2 32 2 14 5 27 4 34 -3 8 -8 11
-7 11 6 0 22 19 22 35 1 11 -16 15 -16 43 -1 22 11 32 12 32 4 0 -7 11 -17 24
-23 20 -9 27 -8 40 7 9 11 12 19 8 20 -4 0 -20 2 -37 5 -16 2 -50 5 -75 7 -25
2 -54 7 -64 12 -14 6 -17 5 -12 -3 10 -16 0 -15 -29 4 -14 9 -25 12 -25 7z"/>
<path d="M320 130 c0 -5 5 -10 10 -10 6 0 10 5 10 10 0 6 -4 10 -10 10 -5 0
-10 -4 -10 -10z"/>
<path d="M1727 133 c-12 -11 -8 -41 6 -46 8 -3 14 5 15 24 2 28 -7 37 -21 22z"/>
<path d="M1953 133 c-7 -2 -9 -11 -6 -19 5 -13 -2 -16 -24 -13 -5 1 -7 5 -5
10 1 5 -9 7 -23 3 -17 -4 -25 -2 -25 7 0 10 -3 10 -12 1 -15 -15 -2 -29 40
-41 26 -8 35 -6 57 15 15 13 31 22 36 19 5 -4 9 -4 9 -1 0 9 -35 23 -47 19z"/>
<path d="M2935 129 c-4 -6 -4 -13 -1 -16 3 -3 -2 -12 -12 -19 -15 -12 -13 -13
20 -14 39 0 60 16 34 26 -8 3 -12 12 -9 20 6 16 -22 20 -32 3z"/>
<path d="M16 121 c-3 -4 6 -13 19 -19 27 -12 33 -4 13 16 -14 14 -25 15 -32 3z"/>
<path d="M1240 121 c0 -5 5 -13 10 -16 6 -3 10 -2 10 4 0 5 -4 13 -10 16 -5 3
-10 2 -10 -4z"/>
<path d="M2435 120 c-4 -6 3 -10 14 -10 25 0 27 6 6 13 -8 4 -17 2 -20 -3z"/>
<path d="M2610 120 c0 -5 5 -10 10 -10 6 0 10 5 10 10 0 6 -4 10 -10 10 -5 0
-10 -4 -10 -10z"/>
<path d="M815 110 c-3 -5 -1 -18 4 -27 7 -13 10 -14 11 -4 0 11 5 9 21 -5 l22
-19 -17 33 c-17 33 -30 40 -41 22z"/>
<path d="M1497 113 c-10 -9 -9 -23 1 -23 5 0 9 7 9 15 0 17 -1 18 -10 8z"/>
<path d="M2515 111 c-3 -5 -2 -12 3 -15 5 -3 9 1 9 9 0 17 -3 19 -12 6z"/>
<path d="M214 94 c3 -8 6 -18 6 -20 0 -3 5 -2 10 1 15 9 12 22 -6 29 -12 5
-15 2 -10 -10z"/>
<path d="M625 100 c3 -5 10 -10 16 -10 5 0 9 5 9 10 0 6 -7 10 -16 10 -8 0
-12 -4 -9 -10z"/>
<path d="M1300 96 c0 -8 4 -17 9 -20 5 -4 7 3 4 14 -6 23 -13 26 -13 6z"/>
<path d="M1320 99 c0 -5 5 -7 10 -4 6 3 10 8 10 11 0 2 -4 4 -10 4 -5 0 -10
-5 -10 -11z"/>
<path d="M1805 100 c-3 -5 -1 -10 4 -10 6 0 11 5 11 10 0 6 -2 10 -4 10 -3 0
-8 -4 -11 -10z"/>
<path d="M153 80 c-1 -11 2 -22 8 -25 5 -4 9 3 9 14 0 11 -4 22 -8 25 -4 2 -8
-4 -9 -14z"/>
<path d="M666 83 c-6 -14 -5 -15 5 -6 7 7 10 15 7 18 -3 3 -9 -2 -12 -12z"/>
<path d="M1650 90 c0 -5 5 -10 10 -10 6 0 10 5 10 10 0 6 -4 10 -10 10 -5 0
-10 -4 -10 -10z"/>
<path d="M1836 91 c-3 -5 3 -11 15 -14 16 -4 18 -3 8 9 -13 16 -16 17 -23 5z"/>
<path d="M1985 90 c3 -5 8 -10 11 -10 2 0 4 5 4 10 0 6 -5 10 -11 10 -5 0 -7
-4 -4 -10z"/>
<path d="M2041 79 c8 -15 6 -19 -8 -20 -10 -1 -4 -4 12 -8 17 -4 32 -6 33 -5
10 7 -11 43 -28 47 -17 4 -18 2 -9 -14z"/>
<path d="M2807 78 c-7 -23 -1 -38 14 -38 5 0 9 9 9 20 0 13 6 19 18 18 32 -2
52 2 52 12 0 6 -20 10 -44 10 -36 0 -45 -4 -49 -22z"/>
<path d="M15 80 c3 -5 11 -10 16 -10 6 0 7 5 4 10 -3 6 -11 10 -16 10 -6 0 -7
-4 -4 -10z"/>
<path d="M370 80 c-14 -4 -24 -12 -22 -19 2 -9 -5 -10 -20 -6 -18 5 -20 4 -8
-4 12 -9 12 -13 2 -19 -8 -6 -2 -9 18 -9 19 0 30 5 30 14 0 10 7 12 20 8 16
-5 18 -2 15 16 -5 27 -5 27 -35 19z"/>
<path d="M1417 70 c3 -11 9 -20 15 -20 5 0 4 9 -2 20 -6 11 -12 20 -14 20 -2
0 -2 -9 1 -20z"/>
<path d="M2543 70 c-1 -11 1 -22 5 -24 4 -2 8 7 8 20 1 13 -1 24 -5 24 -4 0
-7 -9 -8 -20z"/>
<path d="M2640 81 c0 -17 12 -41 20 -41 10 0 1 38 -11 46 -5 3 -9 1 -9 -5z"/>
<path d="M695 69 c-11 -16 -1 -19 13 -3 7 8 8 14 3 14 -5 0 -13 -5 -16 -11z"/>
<path d="M741 64 c0 -11 3 -14 6 -6 3 7 2 16 -1 19 -3 4 -6 -2 -5 -13z"/>
<path d="M1510 79 c0 -4 7 -20 15 -35 8 -16 15 -22 15 -13 0 14 -29 61 -30 48z"/>
<path d="M2165 71 c-3 -5 -1 -12 4 -15 5 -3 11 1 15 9 6 16 -9 21 -19 6z"/>
<path d="M55 60 c3 -5 8 -10 11 -10 2 0 4 5 4 10 0 6 -5 10 -11 10 -5 0 -7 -4
-4 -10z"/>
<path d="M426 61 c-7 -10 18 -34 27 -25 7 8 -3 34 -13 34 -5 0 -11 -4 -14 -9z"/>
<path d="M2450 59 c0 -5 5 -7 10 -4 6 3 10 8 10 11 0 2 -4 4 -10 4 -5 0 -10
-5 -10 -11z"/>
<path d="M646 43 c-6 -14 -5 -15 5 -6 7 7 10 15 7 18 -3 3 -9 -2 -12 -12z"/>
<path d="M1615 50 c3 -5 15 -10 26 -10 11 0 17 5 14 10 -3 6 -15 10 -26 10
-11 0 -17 -4 -14 -10z"/>
<path d="M1810 50 c0 -5 5 -10 11 -10 5 0 7 5 4 10 -3 6 -8 10 -11 10 -2 0 -4
-4 -4 -10z"/>
<path d="M1380 40 c0 -5 5 -10 11 -10 5 0 7 5 4 10 -3 6 -8 10 -11 10 -2 0 -4
-4 -4 -10z"/>
<path d="M536 31 c-3 -5 1 -11 9 -15 8 -3 15 -1 15 4 0 13 -18 22 -24 11z"/>
<path d="M720 30 c0 -5 5 -10 11 -10 5 0 7 5 4 10 -3 6 -8 10 -11 10 -2 0 -4
-4 -4 -10z"/>
<path d="M778 23 c7 -3 16 -2 19 1 4 3 -2 6 -13 5 -11 0 -14 -3 -6 -6z"/>
<path d="M814 21 c3 -5 15 -7 26 -4 28 7 25 13 -6 13 -14 0 -23 -4 -20 -9z"/>
<path d="M955 20 c-3 -5 -1 -10 4 -10 6 0 11 5 11 10 0 6 -2 10 -4 10 -3 0 -8
-4 -11 -10z"/>
<path d="M48 13 c7 -3 16 -2 19 1 4 3 -2 6 -13 5 -11 0 -14 -3 -6 -6z"/>
<path d="M120 10 c0 -6 7 -10 15 -10 8 0 15 2 15 4 0 2 -7 6 -15 10 -8 3 -15
1 -15 -4z"/>
</g>
</svg>
