    <svg width="300" height="300">
        <rect width="300" height="300" style="fill:#89C4F4"></rect>
        <circle cx="150" cy="340" r="150" stroke="black" stroke-width="1" fill="#F4D03F" />
        <ellipse cx="150" cy="300" rx="200" ry="50"
  style="fill:rgba(44,105,69,255);stroke:black;stroke-width:1" />
        <circle cx="20" cy="30" r="10" stroke="#ABB7B7" stroke-width="1" fill="#ECF0F1" />
        <circle cx="20" cy="20" r="10" stroke="#ABB7B7" stroke-width="1" fill="#ECF0F1" />
        <circle cx="30" cy="20" r="10" stroke="#ABB7B7" stroke-width="1" fill="#ECF0F1" />
        <circle cx="30" cy="30" r="10" stroke="#ABB7B7" stroke-width="1" fill="#ECF0F1" />
        <circle cx="40" cy="30" r="10" stroke="#ABB7B7" stroke-width="1" fill="#ECF0F1" />
        <circle cx="40" cy="20" r="10" stroke="#ABB7B7" stroke-width="1" fill="#ECF0F1" />

        <circle cx="120" cy="50" r="10" stroke="#ABB7B7" stroke-width="1" fill="#ECF0F1" />
        <circle cx="120" cy="40" r="10" stroke="#ABB7B7" stroke-width="1" fill="#ECF0F1" />
        <circle cx="130" cy="40" r="10" stroke="#ABB7B7" stroke-width="1" fill="#ECF0F1" />
        <circle cx="130" cy="50" r="10" stroke="#ABB7B7" stroke-width="1" fill="#ECF0F1" />
        <circle cx="140" cy="50" r="10" stroke="#ABB7B7" stroke-width="1" fill="#ECF0F1" />
        <circle cx="140" cy="40" r="10" stroke="#ABB7B7" stroke-width="1" fill="#ECF0F1" />

        <circle cx="220" cy="30" r="10" stroke="#ABB7B7" stroke-width="1" fill="#ECF0F1" />
        <circle cx="220" cy="20" r="10" stroke="#ABB7B7" stroke-width="1" fill="#ECF0F1" />
        <circle cx="230" cy="20" r="10" stroke="#ABB7B7" stroke-width="1" fill="#ECF0F1" />
        <circle cx="230" cy="30" r="10" stroke="#ABB7B7" stroke-width="1" fill="#ECF0F1" />
        <circle cx="240" cy="30" r="10" stroke="#ABB7B7" stroke-width="1" fill="#ECF0F1" />
        <circle cx="240" cy="20" r="10" stroke="#ABB7B7" stroke-width="1" fill="#ECF0F1" />
    </svg>